<?xml version="1.0" encoding="utf-8"?>
<!-- Generator: Adobe Illustrator 16.0.0, SVG Export Plug-In . SVG Version: 6.00 Build 0)  -->
<!DOCTYPE svg PUBLIC "-//W3C//DTD SVG 1.1//EN" "http://www.w3.org/Graphics/SVG/1.1/DTD/svg11.dtd">
<svg version="1.1" id="Layer_1" xmlns="http://www.w3.org/2000/svg" xmlns:xlink="http://www.w3.org/1999/xlink" x="0px" y="0px"
	 width="2054.952px" height="2055px" viewBox="0 0 2054.952 2055" enable-background="new 0 0 2054.952 2055" xml:space="preserve">
<g>
	<path d="M944.154,402.998c-293.625,0-541.093,193.283-617.166,456.806c-0.815,2.383-1.505,4.767-2.069,7.149
		c-0.502,2.132-1.192,4.139-1.756,6.146l0.563,0.125c-0.563,3.888-1.003,7.902-1.003,12.041c0,44.276,36.688,80.148,81.904,80.148
		c39.824,0,72.999-27.97,80.336-64.846C542.724,705.654,726.6,562.667,944.154,562.667c263.663,0,478.27,209.965,478.27,468.094
		c0,142.235-65.097,275.188-178.357,364.617l-6.647,5.143l-6.021,6.021c-74.504,72.497-145.496,161.425-210.984,264.4
		c-18.814,28.849-34.493,56.191-48.29,80.273c-39.635,69.236-60.205,104.983-119.972,138.221
		c-10.473,3.889-19.754,5.896-27.594,5.896c-8.403,0-16.493-3.01-23.893-7.274c-1.003-0.627-1.945-1.129-2.885-1.882
		c-1.379-0.753-2.634-1.505-3.888-2.509c0,0-0.126,0.126-0.126,0.251c-11.665-6.271-25.085-9.783-39.322-9.783
		c-45.154,0-81.841,35.872-81.841,80.022c0,17.561,5.832,33.74,15.553,46.91c0,0.251-0.125,0.502-0.125,0.502
		c0,0.501-0.501,1.378-1.38,2.635c4.703,3.887,9.72,7.525,14.926,11.162c5.393,4.391,11.288,8.027,17.685,11.037
		c28.911,16.557,64.093,28.598,105.295,28.598c29.727,0,62.526-6.271,98.398-21.573c138.424-72.873,163.886-167.696,235.442-277.319
		c47.788-75.257,111.254-161.676,188.016-236.431c145.746-115.143,239.064-291.242,239.064-488.916
		C1585.479,684.08,1298.376,402.998,944.154,402.998z"/>
	<path d="M1374.135,1043.43c0-232.166-192.28-420.307-429.417-420.307c-176.225,0-327.616,104.104-393.716,252.736l0,0
		c-3.072,6.898-4.892,14.675-4.892,22.702c0,31.231,25.963,56.568,57.885,56.568c25.21,0,46.659-15.929,54.561-38.004h0.313
		c49.293-106.488,158.854-180.866,285.849-180.866c173.043,0,313.772,137.719,313.772,307.172
		c0,50.923-12.793,98.836-35.245,141.105c-7.525,9.658-12.041,21.573-12.041,34.618c0,31.607,26.089,57.194,58.449,57.194
		c24.835,0,46.032-15.051,54.436-36.374C1355.822,1181.273,1374.135,1114.547,1374.135,1043.43z"/>
	<path fill-rule="evenodd" clip-rule="evenodd" d="M1718.809,0l-338.403,349.942l336.271,309.053l338.276-349.942L1718.809,0z
		 M0,1744.442l336.208,309.053l405.256-424.571l-336.208-308.928L0,1744.442z"/>
</g>
</svg>
