<?xml version="1.0" encoding="utf-8"?>
<!-- Generator: Adobe Illustrator 16.0.0, SVG Export Plug-In . SVG Version: 6.00 Build 0)  -->
<!DOCTYPE svg PUBLIC "-//W3C//DTD SVG 1.1//EN" "http://www.w3.org/Graphics/SVG/1.1/DTD/svg11.dtd">
<svg version="1.1" id="Layer_1" xmlns="http://www.w3.org/2000/svg" xmlns:xlink="http://www.w3.org/1999/xlink" x="0px" y="0px"
	 width="173.158px" height="130.303px" viewBox="0 0 173.158 130.303" enable-background="new 0 0 173.158 130.303"
	 xml:space="preserve">
<path d="M86.697,81.332h-0.235l0,0c-23.399,0.017-46.804,2.086-69.919,6.268l6.646,28.451c20.965-3.686,42.179-5.527,63.393-5.527
	c21.206,0,42.428,1.842,63.396,5.527l6.64-28.451C133.498,83.418,110.104,81.349,86.697,81.332L86.697,81.332z"/>
<path d="M86.697,117.59h-0.235v0.017c-20.633,0-41.266,1.767-61.664,5.338l1.723,7.358c19.869-3.452,39.961-5.182,60.06-5.17
	c20.087-0.012,40.19,1.718,60.057,5.17l1.724-7.358c-20.396-3.571-41.028-5.338-61.664-5.338V117.59z"/>
<path d="M166.304,10.038c-6.127-3.29-13.767-0.924-16.986,5.279c-3.296,6.137-0.956,13.788,5.208,17.083
	c0.638,0.329,4.376,1.804,6.575,1.178l-16.159,30.628c-0.524-0.07-1.021-0.168-1.523-0.243
	c-0.185-17.392-20.822-32.946-21.001-32.816c-0.124-0.156-22.945,11.881-25.916,29.023c-0.498,0-1.006,0-1.497-0.021
	c-1.54-8.58-1.982-24.825-1.961-31.109c5.56-2.372,9.449-7.656,9.449-13.853C102.492,6.813,95.366,0,86.581,0
	c-8.788,0-15.914,6.813-15.914,15.187c0,6.197,3.89,11.481,9.452,13.853c0.022,6.284-0.429,22.529-1.966,31.109
	c-0.492,0.021-1,0.021-1.504,0.021C73.69,43.027,50.866,30.99,50.739,31.146c-0.178-0.129-20.809,15.425-21.003,32.816
	c-0.494,0.075-0.997,0.173-1.513,0.243l-16.16-30.628c2.194,0.626,5.932-0.849,6.567-1.178c6.167-3.296,8.504-10.946,5.214-17.083
	c-3.223-6.203-10.87-8.569-16.986-5.279c-6.191,3.252-8.258,9.59-5.927,18.24c1.267,4.695,14.217,53.346,14.217,53.346
	c23.618-4.284,47.52-6.407,71.432-6.396c23.912-0.011,47.814,2.112,71.435,6.396c0,0,12.945-48.651,14.209-53.346
	C174.559,19.628,172.489,13.291,166.304,10.038z"/>
</svg>
