<?xml version="1.0" encoding="utf-8"?>
<!-- Generator: Adobe Illustrator 16.0.0, SVG Export Plug-In . SVG Version: 6.00 Build 0)  -->
<!DOCTYPE svg PUBLIC "-//W3C//DTD SVG 1.1//EN" "http://www.w3.org/Graphics/SVG/1.1/DTD/svg11.dtd">
<svg version="1.1" id="Layer_1" xmlns="http://www.w3.org/2000/svg" xmlns:xlink="http://www.w3.org/1999/xlink" x="0px" y="0px"
	 width="28.266px" height="28.266px" viewBox="0 0 28.266 28.266" enable-background="new 0 0 28.266 28.266" xml:space="preserve">
<path d="M27.747,0.52c-0.906-0.905-1.851-0.503-2.842,0.253l2.587,2.588C28.248,2.369,28.651,1.425,27.747,0.52z M15.984,20.239
	l0.256,0.254c1.354-1.355,1.871-3.229,1.558-4.981c0.027-0.026,0.06-0.044,0.085-0.068c0.68-0.679,1.33-2.12,0.509-2.938
	l8.416-8.415l-2.631-2.631l-8.416,8.415c-0.751-0.753-2.258-0.17-2.937,0.508c-0.026,0.027-0.044,0.058-0.07,0.087
	c-1.752-0.315-3.627,0.203-4.98,1.558l0.304,0.306c-2.343,1.1-5.02,2.18-8.016,1.72c-0.005-0.035-0.012-0.055-0.02-0.063
	c-0.124-0.122-0.349,3.016,5.452,8.821l0.014,0.013c5.964,5.96,8.755,5.433,8.755,5.433C13.805,25.258,14.884,22.582,15.984,20.239z
	 M9.639,24.566l3.704-4.503l-4.602,3.779c-0.584-0.494-1.219-1.068-1.899-1.734l3.852-4.695l-4.692,3.851
	c-0.599-0.622-1.115-1.204-1.568-1.747l3.771-4.593l-4.487,3.692c-0.979-1.289-1.547-2.317-1.872-3.064
	c2.696-0.106,5.089-1.166,7.121-2.132l5.931,5.931c-0.968,2.036-2.028,4.434-2.132,7.133C12.021,26.172,10.98,25.6,9.639,24.566z"/>
</svg>
