<?xml version="1.0" encoding="utf-8"?>
<!-- Generator: Adobe Illustrator 16.0.0, SVG Export Plug-In . SVG Version: 6.00 Build 0)  -->
<!DOCTYPE svg PUBLIC "-//W3C//DTD SVG 1.1//EN" "http://www.w3.org/Graphics/SVG/1.1/DTD/svg11.dtd">
<svg version="1.1" id="Layer_1" xmlns="http://www.w3.org/2000/svg" xmlns:xlink="http://www.w3.org/1999/xlink" x="0px" y="0px"
	 width="1922.812px" height="2051px" viewBox="0 0 1922.812 2051" enable-background="new 0 0 1922.812 2051" xml:space="preserve">
<g>
	<path fill-rule="evenodd" clip-rule="evenodd" d="M1327.567,0H413.855C282.163,0,175.444,104.027,175.444,232.465v1579.561
		h1390.597V232.465C1566.041,104.027,1459.26,0,1327.567,0z M1361.366,649.951c0,90.507-75.36,163.99-168.246,163.99H548.302
		c-92.886,0-168.183-73.482-168.183-163.99V333.112c0-90.633,75.297-164.115,168.183-164.115h644.818
		c92.886,0,168.246,73.482,168.246,164.115V649.951z"/>
	<path fill-rule="evenodd" clip-rule="evenodd" d="M1741.422,1931.325c0,66.222-54.83,119.675-122.429,119.675H122.554
		C54.83,2051,0,1997.547,0,1931.325l0,0c0-65.847,54.83-119.3,122.554-119.3h1496.439
		C1686.592,1812.025,1741.422,1865.479,1741.422,1931.325L1741.422,1931.325z"/>
	<path fill-rule="evenodd" clip-rule="evenodd" d="M1726.65,654.082l-91.008-66.097l-0.876-106.03l-151.472-92.761l22.282-100.897
		l362.53,237.347C1959.992,587.484,1839.565,715.922,1726.65,654.082z"/>
	<path fill-rule="evenodd" clip-rule="evenodd" d="M1788.992,718.802c-15.397,0-30.295-1.878-45.066-5.759v682.248
		c0,0,10.015,161.611-139.829,161.611c-162.112,0-89.381,0-89.381,0c-60.464,0-109.16,28.291-109.16,87.128
		c0,58.836,48.696,87.127,109.16,87.127h145.588c258.378,0,262.509-268.143,262.509-268.143V668.478
		c0-4.131-0.125-8.137-0.501-12.268C1892.394,694.141,1842.069,718.802,1788.992,718.802z"/>
</g>
</svg>
