<?xml version="1.0" encoding="utf-8"?>
<!-- Generator: Adobe Illustrator 16.0.0, SVG Export Plug-In . SVG Version: 6.00 Build 0)  -->
<!DOCTYPE svg PUBLIC "-//W3C//DTD SVG 1.1//EN" "http://www.w3.org/Graphics/SVG/1.1/DTD/svg11.dtd">
<svg version="1.1" id="Layer_1" xmlns="http://www.w3.org/2000/svg" xmlns:xlink="http://www.w3.org/1999/xlink" x="0px" y="0px"
	 width="2043px" height="1532.24px" viewBox="0 0 2043 1532.24" enable-background="new 0 0 2043 1532.24" xml:space="preserve">
<path d="M1918.929,534.993H1640.36v0.374h-433.938l339.046-339.045c44.641-43.768,45.888-115.966,2.992-161.355
	c-43.02-45.389-113.971-46.76-158.611-3.117L873.362,535.367H402.577v-0.374H124.071C55.552,534.993,0,591.48,0,661.185
	c0,69.704,55.552,126.191,124.071,126.191h22.071l221.957,589.495c39.778,133.673,102.499,155.37,229.126,155.37h852.851
	c126.44,0,177.315-11.971,229.064-155.37l221.957-589.495h17.831c68.582,0,124.071-56.487,124.071-126.191
	C2043,591.48,1987.511,534.993,1918.929,534.993z M702.967,1260.654c0,54.367-24.253,98.51-77.747,98.51s-77.81-44.143-77.81-98.51
	V806.953c0-54.367,24.315-98.509,77.81-98.509s77.747,44.142,77.747,98.509V1260.654z M1101.43,1260.654
	c0,54.367-24.316,98.51-77.81,98.51c-53.494,0-77.81-44.143-77.81-98.51V806.953c0-54.367,24.315-98.509,77.81-98.509
	c53.494,0,77.81,44.142,77.81,98.509V1260.654z M1499.704,1260.654c0,54.367-24.19,98.51-77.685,98.51s-77.81-44.143-77.81-98.51
	V806.953c0-54.367,24.315-98.509,77.81-98.509s77.685,44.142,77.685,98.509V1260.654z"/>
</svg>
