<?xml version="1.0" encoding="utf-8"?>
<!-- Generator: Adobe Illustrator 16.0.0, SVG Export Plug-In . SVG Version: 6.00 Build 0)  -->
<!DOCTYPE svg PUBLIC "-//W3C//DTD SVG 1.1//EN" "http://www.w3.org/Graphics/SVG/1.1/DTD/svg11.dtd">
<svg version="1.1" id="Layer_1" xmlns="http://www.w3.org/2000/svg" xmlns:xlink="http://www.w3.org/1999/xlink" x="0px" y="0px"
	 width="1663.938px" height="2048px" viewBox="0 0 1663.938 2048" enable-background="new 0 0 1663.938 2048" xml:space="preserve">
<path d="M832,356.375C372.438,356.375,0,735,0,1202.125C0,1669.375,372.438,2048,832,2048
	c459.438,0,831.938-378.625,831.938-845.875C1663.938,735,1291.438,356.375,832,356.375z M832,1850.875
	c-352.438,0-638.063-290.375-638.063-648.75c0-358.25,285.625-648.75,638.063-648.75s638.062,290.5,638.062,648.75
	C1470.062,1560.5,1184.438,1850.875,832,1850.875z M885.187,1105L832,620.25L778.812,1105
	c-35.25,19.375-59.125,57.125-59.125,100.625c0,63.125,50.25,114.25,112.312,114.25c61.937,0,112.312-51.125,112.312-114.25
	C944.312,1162.125,920.438,1124.375,885.187,1105z M1520.312,444.125c26.126-44.125,12.126-101.5-31.25-128l-118-72.125
	c-43.374-26.625-99.875-12.375-126,31.75l-64.874,104c99.874,44.375,190,106.75,266.75,182.875L1520.312,444.125z M700.375,256.875
	v63.25c43.063-6.5,86.938-10,131.625-10c51.937,0,102.812,4.75,152.187,13.5v-66.75c35.25-1.5,63.25-30.875,63.25-67V67.125
	C1047.438,30,1017.937,0,981.562,0H703.125C666.75,0,637.25,30,637.25,67.125v122.75C637.25,226,665.312,255.375,700.375,256.875z"
	/>
</svg>
