<?xml version="1.0" encoding="utf-8"?>
<!-- Generator: Adobe Illustrator 16.0.0, SVG Export Plug-In . SVG Version: 6.00 Build 0)  -->
<!DOCTYPE svg PUBLIC "-//W3C//DTD SVG 1.1//EN" "http://www.w3.org/Graphics/SVG/1.1/DTD/svg11.dtd">
<svg version="1.1" id="Layer_1" xmlns="http://www.w3.org/2000/svg" xmlns:xlink="http://www.w3.org/1999/xlink" x="0px" y="0px"
	 width="1920px" height="2048px" viewBox="0 0 1920 2048" enable-background="new 0 0 1920 2048" xml:space="preserve">
<g>
	<path d="M1449.04,452.772c0,0-66.829-462.57-492.953-452.614c-426.121-9.956-492.89,452.614-492.89,452.614
		c-36.277,46.918-49.157,58.493-49.157,58.493S463.197,697.444,514.474,889.1l82.509,28.498l66.208-5.476
		c140.942-8.088,70.503-260.85,70.503-260.85c-48.412-259.729-169.378-226.998-169.378-226.998
		c-34.225-110.125,76.787-236.567,76.787-236.567s39.201,25.139,118.167-31.985c104.352-73.426,305.093-69.195,393.702,0
		c78.901,57.125,118.104,31.985,118.104,31.985s111.136,126.442,77.034,236.567c0,0-121.09-32.731-169.502,226.998
		c0,0-70.439,252.762,70.439,260.85c0,0,9.209,65.463-53.391,97.943c-80.644,41.941-190.783,62.475-190.783,62.475
		s-17.049,112.194,29.868,85.81c47.044-26.569,203.603-93.277,203.603-93.277s71.186-21.03,76.911-147.475l82.637-28.498
		c51.148-191.656,99.528-372.483,99.528-372.483S1485.35,499.691,1449.04,452.772z"/>
	<path d="M1805.189,1195.686c-62.102-116.051-158.551-190.721-298.56-211.629c-40.914-6.1-76.132-0.375-111.725,18.917
		c-28.003,97.072-93.092,132.541-119.227,143.119c-58.74,24.953-162.906,71-193.771,88.423
		c-19.165,10.703-39.451,16.428-59.984,16.428c-30.74,0-60.111-12.943-80.521-35.593c-14.934-16.428-24.641-38.084-29.371-64.716
		c-61.105-2.987-127.188-14-193.521-39.638c-68.448-27.13-131.794-66.582-194.954-104.041
		c-37.958-22.65-74.98-29.247-118.664-22.899c-140.008,20.908-236.582,95.578-298.56,211.629
		C12.389,1371.908-7.648,1561.074,2.308,1754.224c5.103,99.778,55.738,178.681,145.966,232.443
		c67.95,40.322,144.738,52.021,223.765,52.021c191.967,0.498,383.995,0.248,575.961,0.248h15.555
		c191.905,0,383.808,0.25,575.932-0.248c79.026,0,155.812-11.699,223.762-52.021c90.104-53.763,140.88-132.665,145.859-232.443
		C1919.31,1561.074,1899.15,1371.908,1805.189,1195.686z M824.17,632.231c13.938,51.15,47.479,206.465-23.397,300.177
		c-22.836,30.243-54.634,51.522-91.659,61.604c61.666,32.108,131.234,52.393,205.282,57.994l8.215-54.26l64.589-11.947
		c0.746-0.249,72.804-13.939,135.403-40.076c-3.982-4.229-7.716-8.586-11.2-13.315c-70.813-93.712-37.212-249.152-23.396-300.3
		c34.348-180.206,108.022-252.637,169.999-280.748c-6.097-24.144-18.791-49.531-31.859-70.564
		c-41.691-4.355-85-22.525-129.056-54.386l-2.861-2.115c-26.012-20.41-79.152-33.479-135.405-33.479
		c-58.243,0-112.254,13.44-144.549,36.216c-43.185,31.238-86.556,49.408-128.184,53.763c-13.13,21.033-25.762,46.421-31.862,70.564
		C716.271,379.471,789.821,451.902,824.17,632.231z"/>
</g>
</svg>
