<?xml version="1.0" encoding="utf-8"?>
<!-- Generator: Adobe Illustrator 16.0.0, SVG Export Plug-In . SVG Version: 6.00 Build 0)  -->
<!DOCTYPE svg PUBLIC "-//W3C//DTD SVG 1.1//EN" "http://www.w3.org/Graphics/SVG/1.1/DTD/svg11.dtd">
<svg version="1.1" id="Layer_1" xmlns="http://www.w3.org/2000/svg" xmlns:xlink="http://www.w3.org/1999/xlink" x="0px" y="0px"
	 width="2043.394px" height="1787.902px" viewBox="0 0 2043.394 1787.902" enable-background="new 0 0 2043.394 1787.902"
	 xml:space="preserve">
<g>
	<polygon points="932.301,893.951 1142.086,1025.15 1143.644,950.447 1649.796,950.447 1719.638,1038.246 2043.394,1038.246 
		1893.488,893.951 2043.394,749.782 1719.638,749.782 1649.796,837.706 1143.644,837.706 1142.086,762.628 	"/>
	<path d="M896.883,666.348c-125.837,0-228.291,102.016-228.291,227.604c0,125.338,102.453,227.479,228.291,227.479
		c58.366,0,111.494-22.074,151.839-58.116L778.03,893.951l270.692-169.487C1008.377,688.547,955.249,666.348,896.883,666.348z"/>
	<path d="M1233.875,1032.259c-54.75,131.947-185.152,224.985-336.992,224.985c-200.978,0-364.541-162.878-364.541-363.293
		c0-200.416,163.563-363.293,364.541-363.293c151.839,0,282.242,93.163,336.992,224.986h206.404
		c-61.984-241.698-281.73-421.16-543.396-421.16c-309.541,0-561.339,250.924-561.339,559.468
		c0,308.418,251.799,559.469,561.339,559.469c261.666,0,481.412-179.464,543.396-421.161H1233.875z"/>
	<path d="M1680.102,1119.934l-69.962-87.675h-27.19c-64.476,318.645-347.578,559.344-686.067,559.344
		c-386.054,0-700.021-312.908-700.021-697.651c0-384.744,313.967-697.651,700.021-697.651
		c338.489,0,621.591,240.699,686.067,559.344h27.19l69.962-87.675h84.557C1664.015,284.099,1313.194,0,896.883,0
		C402.391,0,0,400.955,0,893.951c0,492.995,402.391,893.951,896.883,893.951c416.311,0,767.132-284.223,867.776-667.969H1680.102z"
		/>
</g>
</svg>
