<?xml version="1.0" encoding="utf-8"?>
<!DOCTYPE svg PUBLIC "-//W3C//DTD SVG 1.1//EN" "http://www.w3.org/Graphics/SVG/1.1/DTD/svg11.dtd">
<svg version="1.1" id="Layer_1" xmlns="http://www.w3.org/2000/svg" xmlns:xlink="http://www.w3.org/1999/xlink" x="0px" y="0px"
	 width="1413.055px" height="2055.35px" viewBox="0 0 1413.055 2055.35" enable-background="new 0 0 1413.055 2055.35"
	 xml:space="preserve">
<path d="M706.528,309.541c101.357,0,200.081,19.945,281.118,56.464c57.201-112.663,217.298-216.782,129.709-322.781
	c-99.603-120.817-255.403,46.414-308.968,80.535c-38.573,23.583-72.82,34.747-101.859,39.013
	c-29.041-4.267-63.286-15.431-101.922-39.013C551.167,89.639,395.226-77.592,295.623,43.225
	c-87.56,105.999,72.569,210.118,129.834,322.781C506.384,329.486,605.232,309.541,706.528,309.541z M706.528,399.499
	c-100.794,0-192.682,21.577-262.632,57.203c-5.457,25.088-15.869,81.789-29.73,110.514c89.645-35.5,189.311-56.072,291.42-55.571
	c102.801-0.752,203.03,19.695,293.224,55.446c-13.798-28.727-24.21-85.301-29.73-110.39
	C899.208,421.075,807.258,399.499,706.528,399.499z M1148.997,774.966c-90.35-105.765-254.932-190.564-443.159-189.435
	c-187.914-0.626-352.008,84.173-442.14,189.937C140.073,952.969,0,1312.694,0,1500.858c0,393.924,315.255,554.491,704.207,554.491
	c0.754,0,1.506,0,2.321-0.253c0.752,0.253,1.567,0.253,2.32,0.253c388.937,0,704.206-160.567,704.206-554.491
	C1413.055,1312.694,1272.685,952.594,1148.997,774.966z M782.296,1731.173v65.261c0,33.118-31.298,59.963-69.622,59.963h-37.695
	c-38.387,0-69.684-26.845-69.684-59.963v-66.015c-78.339-12.795-143.522-43.654-190.815-100.604
	c-14.112-16.308-22.894-31.862-22.894-52.687c0-39.389,31.612-71.502,70.688-71.502c25.527,0,42.039,17.562,60.291,34.622
	c43.591,45.661,110.265,66.485,179.446,66.485c90.82,0,176.123-32.113,176.123-116.161c0-73.007-75.517-102.863-177.252-113.902
	c-156.427-18.817-300.891-60.965-300.891-234.768c0-125.207,95.854-192.319,205.304-215.903v-86.681
	c0-33.116,31.297-59.962,69.684-59.962h37.695c38.324,0,69.622,26.846,69.622,59.962v83.419
	c53.564,8.908,104.745,27.598,146.392,60.84c18.816,18.691,35.124,35.376,35.124,61.718c0,39.531-26.594,68.759-65.731,68.759
	c-26.093,0-42.15-15.68-66.109-33.242c-34.498-21.969-80.723-37.523-131.089-37.523c-107.19,0-158.623,45.426-158.623,103.131
	c0,67.424,78.778,86.24,170.665,97.28c159.69,19.819,308.591,61.97,308.591,246.872
	C1021.516,1634.832,916.144,1710.099,782.296,1731.173z"/>
</svg>
