<?xml version="1.0" encoding="utf-8"?>
<!DOCTYPE svg PUBLIC "-//W3C//DTD SVG 1.1//EN" "http://www.w3.org/Graphics/SVG/1.1/DTD/svg11.dtd">
<svg version="1.1" id="Layer_1" xmlns="http://www.w3.org/2000/svg" xmlns:xlink="http://www.w3.org/1999/xlink" x="0px" y="0px"
	 width="64px" height="64px" viewBox="0 0 64 64" enable-background="new 0 0 64 64" xml:space="preserve">
<path fill="#222222" d="M24.748,33.274L5.303,22.524c-2.869-1.594-5.232-0.289-5.24,2.891L0,43.845
	c-0.01,3.184,2.332,7.086,5.209,8.672l19.539,10.805c2.875,1.59,5.23,0.289,5.23-2.887V41.946
	C29.979,38.767,27.623,34.868,24.748,33.274z M9.467,49.884c0,0.711-0.525,1.004-1.168,0.648l-4.357-2.414
	c-0.645-0.352-1.166-1.227-1.164-1.934l0.012-4.113c0.004-0.707,0.531-1,1.172-0.645l4.338,2.398
	c0.643,0.355,1.168,1.227,1.168,1.938V49.884z M18.094,46.599c0,0.715-0.525,1.004-1.166,0.648l-4.361-2.414
	c-0.641-0.352-1.162-1.227-1.162-1.934l0.014-4.109c0.004-0.711,0.529-1.004,1.17-0.648l4.34,2.398
	c0.641,0.359,1.166,1.227,1.166,1.938V46.599z M26.723,43.313c0,0.711-0.527,1.004-1.168,0.645l-4.359-2.41
	c-0.641-0.355-1.164-1.227-1.164-1.93l0.016-4.113c0.004-0.711,0.531-1.004,1.172-0.652l4.336,2.402
	c0.641,0.355,1.168,1.227,1.168,1.938V43.313z M57.934,18.646c2.816-1.559,2.949-4.047,0.465-5.723L38.352,1.708
	c0,0-2.789-1.707-6.297-1.707c-3.844,0-6.402,1.707-6.402,1.707L5.605,12.923c-2.492,1.676-2.355,4.164,0.465,5.723l20.434,11.309
	c1.496,0.824,3.467,1.223,5.443,1.223v0.008h0.107v-0.008c1.975,0,3.943-0.398,5.441-1.223L57.934,18.646z M32.016,17.978v0.004
	h-0.029v-0.004c-0.545,0-1.088-0.109-1.502-0.34l-5.633-3.113c-0.777-0.43-0.816-1.117-0.129-1.578l5.527-3.09
	c0,0,0.707-0.477,1.766-0.477c0.967,0,1.734,0.477,1.734,0.477l5.527,3.09c0.688,0.461,0.648,1.148-0.125,1.578l-5.639,3.113
	C33.102,17.868,32.559,17.978,32.016,17.978z M63.938,25.415c-0.008-3.18-2.371-4.484-5.242-2.891l-19.441,10.75
	c-2.875,1.594-5.23,5.492-5.23,8.672v18.488c0,3.176,2.355,4.477,5.23,2.887l19.539-10.805c2.879-1.586,5.219-5.488,5.207-8.672
	L63.938,25.415z M46.945,43.134l-4.789,2.648c-0.703,0.391-1.277,0.078-1.277-0.703v-4.531c0-0.777,0.574-1.738,1.277-2.125
	l4.766-2.633c0.707-0.391,1.285-0.07,1.285,0.707l0.016,4.512C48.223,41.79,47.652,42.747,46.945,43.134z M58.738,47.563
	l-4.789,2.648c-0.703,0.391-1.281,0.07-1.281-0.711V44.97c0-0.781,0.578-1.734,1.281-2.125l4.766-2.633
	c0.703-0.391,1.281-0.066,1.285,0.711l0.016,4.516C60.02,46.22,59.445,47.173,58.738,47.563z"/>
</svg>
