<?xml version="1.0" encoding="utf-8"?>
<!DOCTYPE svg PUBLIC "-//W3C//DTD SVG 1.1//EN" "http://www.w3.org/Graphics/SVG/1.1/DTD/svg11.dtd">
<svg version="1.1" id="Layer_1" xmlns="http://www.w3.org/2000/svg" xmlns:xlink="http://www.w3.org/1999/xlink" x="0px" y="0px"
	 width="1530.04px" height="2040.158px" viewBox="0 0 1530.04 2040.158" enable-background="new 0 0 1530.04 2040.158"
	 xml:space="preserve">
<g>
	<path d="M1229.322,199.608H300.781c-58.712,0-106.216,48.688-106.216,108.707v1423.529c0,60.144,47.504,108.831,106.216,108.831
		h928.541c58.648,0,106.216-48.688,106.216-108.831V308.314C1335.538,248.296,1287.971,199.608,1229.322,199.608z
		 M1136.553,1115.338c-51.303,0-92.893-42.711-92.893-95.134c0-52.674,41.59-95.259,92.893-95.259s92.77,42.585,92.77,95.259
		C1229.322,1072.627,1187.855,1115.338,1136.553,1115.338z"/>
	<path d="M1229.322,108.957c107.336,0,194.626,89.531,194.626,199.358v1423.529c0,110.076-87.29,199.607-194.626,199.607H300.781
		c-107.338,0-194.626-89.531-194.626-199.607V308.314c0-109.827,87.289-199.358,194.626-199.358H1229.322 M1229.322,0H300.781
		C134.919,0,0,138.344,0,308.314v1423.529c0,170.095,134.919,308.314,300.781,308.314h928.541
		c165.861,0,300.718-138.22,300.718-308.314V308.314C1530.04,138.344,1395.184,0,1229.322,0L1229.322,0z"/>
</g>
</svg>
