<?xml version="1.0" encoding="utf-8"?>
<!DOCTYPE svg PUBLIC "-//W3C//DTD SVG 1.1//EN" "http://www.w3.org/Graphics/SVG/1.1/DTD/svg11.dtd">
<svg version="1.1" id="Layer_1" xmlns="http://www.w3.org/2000/svg" xmlns:xlink="http://www.w3.org/1999/xlink" x="0px" y="0px"
	 width="2040px" height="1785px" viewBox="0 0 2040 1785" enable-background="new 0 0 2040 1785" xml:space="preserve">
<path d="M1949.355,33.37c-0.871,0.498-1.867,0.747-2.739,1.494C1943.628,15.314,1905.278,0,1858.338,0
	c-47.066,0-85.415,15.314-88.403,34.863c-0.996-0.747-1.868-0.996-2.739-1.494l-63.502,892.375l-117.787-23.532l-57.898-792.393
	c-0.747,0.249-1.743,0.374-2.489,0.747c-2.491-16.561-35.362-29.883-76.202-29.883c-40.342,0-73.462,13.322-75.952,29.883
	c-0.996-0.373-1.743-0.499-2.366-0.747l-29.509,487.09l-144.932-34.863L1164.933,45.82c-0.997,0.498-1.744,0.872-2.615,1.121
	c-2.988-19.299-41.65-34.49-88.528-34.49c-47.065,0-85.415,15.191-88.403,34.49c-0.872-0.249-1.868-0.623-2.74-1.121
	l-27.143,458.079L735.74,450.732L1.058,716.814L0,761.016v826.509L822.026,1785L2040,1525.144L1949.355,33.37z M1902.29,1182.861
	v140.947L879.612,1417.69v-385.488L1902.29,1182.861z M120.278,1163.188l642.917-126.255v381.628l-642.917-47.064V1163.188z"/>
</svg>
