<?xml version="1.0" encoding="utf-8"?>
<!DOCTYPE svg PUBLIC "-//W3C//DTD SVG 1.1//EN" "http://www.w3.org/Graphics/SVG/1.1/DTD/svg11.dtd">
<svg version="1.1" id="Layer_1" xmlns="http://www.w3.org/2000/svg" xmlns:xlink="http://www.w3.org/1999/xlink" x="0px" y="0px"
	 width="2030.857px" height="1777px" viewBox="0 0 2030.857 1777" enable-background="new 0 0 2030.857 1777" xml:space="preserve">
<path d="M0,1777h2030.857c-207.994-94.577-532.629-159.156-903.498-170.188l-39.294-1003.529
	c41.772-16.982,75.116-48.343,94.948-87.14h329.841l-213.572,631.792h-139.075c0,171.056,189.028,310.009,422.186,310.009
	s422.187-138.953,422.187-310.009h-139.076l-213.571-631.792l32.475-134.614h-491.724c-18.098-53.423-61.11-95.567-116.269-113.789
	l-2.231-63.96c33.22-19.337,55.407-54.167,55.407-94.082C1129.59,49.086,1078.521,0,1015.429,0S901.205,49.086,901.205,109.698
	c0,39.915,22.25,74.745,55.47,94.082l-2.231,63.96c-55.159,18.222-98.171,60.366-116.269,113.789H346.451l20.204,134.614
	l-201.301,595.721H26.34c0,171.181,188.967,309.76,422.125,309.76c233.095,0,422.125-138.579,422.125-309.76H731.575
	L530.274,516.143h317.507c19.895,38.797,53.237,70.158,95.011,87.14l-39.294,1003.529C532.628,1617.844,208.056,1682.423,0,1777z
	 M1719.609,1147.935h-274.433l137.216-405.823L1719.609,1147.935z M585.681,1111.864H311.248l137.216-405.947L585.681,1111.864z"/>
</svg>
