<?xml version="1.0" encoding="utf-8"?>
<!DOCTYPE svg PUBLIC "-//W3C//DTD SVG 1.1//EN" "http://www.w3.org/Graphics/SVG/1.1/DTD/svg11.dtd">
<svg version="1.1" id="Layer_1" xmlns="http://www.w3.org/2000/svg" xmlns:xlink="http://www.w3.org/1999/xlink" x="0px" y="0px"
	 width="16.935px" height="25.707px" viewBox="0 0 16.935 25.707" enable-background="new 0 0 16.935 25.707" xml:space="preserve">
<g>
	<path fill="#222222" d="M7.329,24.16H3.047c-0.339,0-0.614,0.214-0.614,0.477l0.175,1.07h5.16l0.175-1.07
		C7.943,24.374,7.669,24.16,7.329,24.16z M13.62,24.16H9.338c-0.339,0-0.614,0.214-0.614,0.477l0.175,1.07h5.159l0.176-1.07
		C14.235,24.374,13.959,24.16,13.62,24.16z"/>
	<path fill="#222222" d="M13.422,18.662h-0.527l0.441-4.097l-2.559,0.812c-0.25-1.048-1.186-1.83-2.311-1.83
		s-2.062,0.782-2.311,1.83l-2.558-0.812l0.44,4.097H3.512c-0.276,0-0.5,0.224-0.5,0.5l0.506,3.98h3.464l0.506-3.98
		c0-0.276-0.222-0.5-0.499-0.5H6.464v-1.424l0.02,0.006c0.427,0.642,1.155,1.066,1.984,1.066c0.828,0,1.557-0.425,1.983-1.066
		l0.02-0.006v1.424H9.944c-0.276,0-0.498,0.224-0.498,0.5l0.506,3.98h3.464l0.507-3.98C13.922,18.885,13.698,18.662,13.422,18.662z"
		/>
	<path fill="#222222" d="M14.204,9.876h2.197V9.837l0.496-0.599c0-5.517-4.612-4.907-4.612-4.907
		c-2.089,0.093-1.271-0.368-1.271-1.417C10.926,0.754,9.725,0,8.467,0C7.208,0,6.009,0.754,5.921,2.915
		c0,1.049,0.817,1.51-1.271,1.417c0,0-4.613-0.61-4.613,4.907l0.497,0.599v0.039H2.73l0.311-0.375l1.54,4.456l0.822,0.299
		c0.709-0.936,1.827-1.519,3.064-1.519s2.354,0.583,3.063,1.519l0.829-0.281l1.533-4.474L14.204,9.876z M7.474,3.053
		c-0.363,0-0.658-0.294-0.658-0.659c0-0.361,0.295-0.656,0.658-0.656c0.362,0,0.657,0.295,0.657,0.656
		C8.13,2.758,7.836,3.053,7.474,3.053z M9.461,3.116c-0.363,0-0.658-0.295-0.658-0.659s0.294-0.656,0.658-0.656
		c0.362,0,0.657,0.293,0.657,0.656S9.824,3.116,9.461,3.116z M2.631,13.55v-2.685H0.533v2.685C0.208,13.741,0,14.018,0,14.329v0.913
		c0,0.578,0.708,1.049,1.583,1.049s1.583-0.471,1.583-1.049v-0.913C3.165,14.018,2.957,13.741,2.631,13.55z M16.401,13.55v-2.685
		h-2.098v2.685c-0.325,0.191-0.534,0.468-0.534,0.779v0.913c0,0.578,0.708,1.049,1.583,1.049s1.583-0.471,1.583-1.049v-0.913
		C16.935,14.018,16.727,13.741,16.401,13.55z"/>
</g>
</svg>
