<?xml version="1.0" encoding="utf-8"?>
<!DOCTYPE svg PUBLIC "-//W3C//DTD SVG 1.1//EN" "http://www.w3.org/Graphics/SVG/1.1/DTD/svg11.dtd">
<svg version="1.1" id="Layer_1" xmlns="http://www.w3.org/2000/svg" xmlns:xlink="http://www.w3.org/1999/xlink" x="0px" y="0px"
	 width="1787.751px" height="2043.285px" viewBox="0 0 1787.751 2043.285" enable-background="new 0 0 1787.751 2043.285"
	 xml:space="preserve">
<path fill-rule="evenodd" clip-rule="evenodd" d="M1244.79,840.631c-45.646,0-82.56,35.917-82.56,80.298
	c0,44.398,36.914,80.315,82.56,80.315c45.645,0,82.684-35.917,82.684-80.315C1327.474,876.548,1290.435,840.631,1244.79,840.631z
	 M1444.327,979.045c-45.644,0-82.684,35.917-82.684,80.299c0,44.397,37.04,80.314,82.684,80.314
	c45.645,0,82.684-35.917,82.684-80.314C1527.011,1014.962,1489.972,979.045,1444.327,979.045z M937.096,998.376
	c0-29.307-16.399-54.748-40.78-68.716l83.432-98.757c15.09,19.207,38.785,31.927,65.535,31.927
	c45.646,0,82.809-35.917,82.809-80.189c0-31.802-19.205-59.113-46.892-71.958l80.533-95.403
	c14.965,14.84,35.792,24.068,58.863,24.068c45.645,0,82.684-35.9,82.684-80.174c0-29.806-16.711-55.372-41.279-69.214
	c38.66-63.354,31.802-112.365-43.524-172.211c-0.998-0.998-2.37-1.621-3.367-2.618l0.125-0.374l-27.312-22.698
	c-162.967-129.825-398.047-117.353-545.751,22.075L274.099,44.272C274.099,44.272,0-113.862,0,167.596
	c0,281.458,0,1748.359,0,1748.359c0,70.336,61.42,127.33,137.058,127.33c75.7,0,137.042-56.994,137.042-127.33V368.615
	l201.284,147.533c-99.332,166.1-63.353,382.209,94.454,507.793c0,0,25.441,18.956,26.626,19.704
	c73.018,58.225,133.191,51.116,192.351,3.243c15.215,19.189,38.786,31.786,65.536,31.786
	C900.057,1078.675,937.096,1042.772,937.096,998.376z M1070.973,1228.078c0-44.272-36.914-80.189-82.621-80.189
	c-45.581,0-82.621,35.917-82.621,80.189c0,44.522,37.04,80.439,82.621,80.439
	C1034.059,1308.518,1070.973,1272.601,1070.973,1228.078z M1122.354,1377.607c-45.645,0-82.685,35.917-82.685,80.313
	c0,44.397,37.04,80.283,82.685,80.283c45.613,0,82.652-35.886,82.652-80.283C1205.007,1413.524,1167.968,1377.607,1122.354,1377.607
	z M1462.91,536.851c-45.645,0-82.684,35.917-82.684,80.298c0,44.398,37.039,80.314,82.684,80.314
	c45.644,0,82.683-35.917,82.683-80.314C1545.593,572.767,1508.554,536.851,1462.91,536.851z M1705.192,595.09
	c-45.738,0-82.652,35.902-82.652,80.174c0,44.398,36.914,80.315,82.652,80.315c45.645,0,82.559-35.917,82.559-80.315
	C1787.751,630.992,1750.837,595.09,1705.192,595.09z"/>
</svg>
