<?xml version="1.0" encoding="utf-8"?>
<!DOCTYPE svg PUBLIC "-//W3C//DTD SVG 1.1//EN" "http://www.w3.org/Graphics/SVG/1.1/DTD/svg11.dtd">
<svg version="1.1" id="Layer_1" xmlns="http://www.w3.org/2000/svg" xmlns:xlink="http://www.w3.org/1999/xlink" x="0px" y="0px"
	 width="2048px" height="1664px" viewBox="0 0 2048 1664" enable-background="new 0 0 2048 1664" xml:space="preserve">
<g>
	<path fill-rule="evenodd" clip-rule="evenodd" d="M1691.139,952.065c-201.2,0-364.143,160.685-364.143,358.874
		c0,198.191,162.942,358.875,364.143,358.875c200.95,0,364.018-160.684,364.018-358.875
		C2055.156,1112.75,1892.089,952.065,1691.139,952.065z M1691.139,1479.15c-94.328,0-170.594-75.262-170.594-168.211
		c0-92.823,76.266-168.21,170.594-168.21c94.078,0,170.594,75.387,170.594,168.21
		C1861.732,1403.889,1785.217,1479.15,1691.139,1479.15z"/>
	<path fill-rule="evenodd" clip-rule="evenodd" d="M1256.375,1310.939c0-236.699,194.679-428.616,434.764-428.616
		c98.093,0,188.407,32.612,261.285,86.802c-0.126-73.507-0.126-129.952-0.126-132.964c-0.752-34.745-8.528-67.233-31.609-95.081
		c-21.198-25.588-48.669-41.143-80.404-48.418c-13.423-3.01-215.626-14.3-379.948-21.073V25.965
		c0-14.425-9.785-25.965-21.701-25.965h-83.416c-12.042,0-21.7,11.54-21.7,25.965v640.983c-51.053-1.38-84.419-1.38-84.419,0.752
		c-0.752,0-1.255,0-2.007,0c-0.251-5.645-0.502-11.414-0.752-17.31l-45.534-518.055c0-62.342-51.304-112.769-114.461-112.769
		H471.769c-63.221,0-114.462,50.426-114.462,112.769l-94.768,490.207c-5.017,0.878-10.098,1.63-15.178,2.383
		c-18.564,2.76-37.381,5.519-55.442,10.411c-39.388,10.662-63.723,38.258-80.093,73.631c-1.567,3.262-3.387,6.774-3.762,10.161
		c-3.325,29.227-22.203,47.29-45.221,62.718c-9.847,6.523-18.941,14.3-28.223,21.952c-29.729,24.334-28.348,64.725,3.7,87.052
		c12.355,8.53,26.655,14.3,41.332,21.952c-4.077,6.898-8.781,14.677-13.422,22.578C28.977,999.857,6.46,1068.722,1.63,1142.98
		c-0.124,2.007-1.065,4.139-1.63,6.271v62.468c2.132,15.429,3.825,30.983,6.334,46.286c15.241,94.454,55.381,177.493,120.42,248.615
		c80.594,87.932,181.005,139.612,299.48,157.424c15.303,2.258,30.794,3.136,46.223,4.767h45.911
		c17.499-2.132,35.06-3.763,52.558-6.272c76.705-10.787,146.321-39.262,209.479-83.038
		c73.693-50.928,128.761-117.159,166.204-197.814c7.086-15.303,12.606-31.234,18.502-47.038c2.006-5.27,4.139-8.28,10.662-8.28
		c7.589,0.126,15.177,0.126,22.83,0.126h22.892c9.22,0,18.69,0,28.412,0l0,0c68.865,0,137.98,0,207.221,0
		C1257.003,1321.352,1256.375,1316.083,1256.375,1310.939z M508.521,1377.798c-114.085,0-206.658-91.317-206.658-203.834
		c0-112.518,92.572-203.835,206.658-203.835c114.147,0,206.719,91.317,206.719,203.835
		C715.241,1286.48,622.668,1377.798,508.521,1377.798z"/>
</g>
</svg>
