<?xml version="1.0" encoding="utf-8"?>
<!DOCTYPE svg PUBLIC "-//W3C//DTD SVG 1.1//EN" "http://www.w3.org/Graphics/SVG/1.1/DTD/svg11.dtd">
<svg version="1.1" id="Layer_1" xmlns="http://www.w3.org/2000/svg" xmlns:xlink="http://www.w3.org/1999/xlink" x="0px" y="0px"
	 width="40px" height="64px" viewBox="0 0 40 64" enable-background="new 0 0 40 64" xml:space="preserve">
<path fill="#222222" d="M38.485,60.656c-1.453,1.414-4.977,1.281-6.18-0.242l-7.035-8.031l-3.764-9.023l-2.617,4.852l-1.217,11.297
	c-0.09,2.438-2.395,4.859-5.42,4.445c-3.029-0.414-4.629-2.938-4.172-5.672l1.551-13.398l4.58-8.586l-0.346-5.095l-8.494,3.671
	c-2.166,0.625-4.482-0.453-5.176-2.406c-0.691-1.953,0.502-4.043,2.668-4.668l6.738-3.176l3.391-5.559
	c1.268-2.988,3.02-4.199,5.838-5.16c-1.938-1.32-3.207-4.07-3.379-6.945c-0.234-3.867,1.373-6.352,5.244-6.902
	c3.953-0.566,6.82,3.176,6.945,7.52c0.086,2.766-2.852,5.254-0.094,7.051l3.688,1.578c7.406,2.656,8.102,12.324,8.102,12.324
	l0.141,5.628c0.164,1.707-1.352,3.467-3.242,3.623c-1.891,0.148-3.555-1.117-3.719-2.822l-0.453-4.558c0,0-0.164-5.039-1.664-4.93
	L30.36,38.445c0.008,0.234,0,0.445-0.008,0.656l3.844,9.812l4.664,5.555C40.103,56.047,40.774,58.93,38.485,60.656z"/>
</svg>
