<?xml version="1.0" encoding="utf-8"?>
<!-- Generator: Adobe Illustrator 18.0.0, SVG Export Plug-In . SVG Version: 6.00 Build 0)  -->
<!DOCTYPE svg PUBLIC "-//W3C//DTD SVG 1.1//EN" "http://www.w3.org/Graphics/SVG/1.1/DTD/svg11.dtd">
<svg version="1.1" id="Layer_1" xmlns="http://www.w3.org/2000/svg" xmlns:xlink="http://www.w3.org/1999/xlink" x="0px" y="0px"
	 viewBox="0 0 93.5 100" enable-background="new 0 0 93.5 100" xml:space="preserve">
<path fill="#222222" d="M46.7,49.3c13.8,0,25-11,25-24.6c0-13.6-11.2-24.6-25-24.6s-25,11-25,24.6C21.7,38.3,32.9,49.3,46.7,49.3z
	 M88.3,56.6c-3-5.9-7.8-9.8-14.6-10.8c-2.1-0.3-3.9,0-5.8,1.2c-3.1,1.9-6.2,3.9-9.5,5.3c-1.1,0.5-3.1,0.9-4.3,1.2l0.9,0.8l-4.7,5.1
	c0.8,0.8,1.3,1.9,1.3,3.1c0,1.5-0.9,2.9-2.2,3.6L54.5,89l-7.8,7.8L39,89l5.2-22.9c-1.3-0.7-2.2-2.1-2.2-3.6c0-1.2,0.5-2.3,1.3-3.1
	l-4.7-5.1l0.8-0.8c-1.1-0.3-3.1-0.7-4.3-1.2c-3.3-1.4-6.4-3.4-9.5-5.3c-1.9-1.2-3.7-1.5-5.8-1.2c-6.8,1.1-11.6,4.9-14.6,10.8
	c-4.6,9-5.6,18.7-5.1,28.6c0.2,5.1,2.7,9.1,7.1,11.9c3.3,2.1,7.1,2.7,10.9,2.7c9.4,0,18.8,0,28.2,0c0.1,0,0.2,0,0.3,0
	c0,0,0.1,0,0.1,0c0.1,0,0.2,0,0.3,0c9.4,0,18.8,0,28.2,0c3.9,0,7.6-0.6,10.9-2.7c4.4-2.8,6.9-6.8,7.1-11.9
	C93.8,75.3,92.8,65.6,88.3,56.6z"/>
</svg>
