<svg xmlns="http://www.w3.org/2000/svg" width="60" height="64" viewBox="0 0 60 64">
    <switch>
        <g>
            <path fill="#222" d="M30.001 31.606c8.862 0 16.046-7.074 16.046-15.801C46.047 7.074 38.863 0 30.001 0c-8.862 0-16.042 7.074-16.042 15.805 0 8.727 7.18 15.801 16.042 15.801zm26.663 4.672c-1.949-3.817-4.977-6.27-9.371-6.958-1.371-.211-2.535.004-3.727.746-1.98 1.234-3.969 2.531-6.121 3.422-.738.305-2.021.559-2.76.77l.551.535-3 3.254c.531.516.852 1.223.84 1.992-.02.988-.582 1.844-1.414 2.316l3.312 14.73-4.979 4.992-4.969-4.992 3.313-14.73c-.834-.473-1.399-1.328-1.415-2.316a2.716 2.716 0 0 1 .833-1.992l-2.991-3.254.541-.539c-.734-.211-2.016-.461-2.752-.766-2.15-.891-4.139-2.188-6.121-3.422-1.191-.742-2.354-.957-3.725-.746-4.395.688-7.424 3.141-9.372 6.958C.389 42.067-.24 48.29.072 54.642c.16 3.281 1.75 5.871 4.582 7.641 2.133 1.329 4.543 1.708 7.024 1.712 6.025.012 12.053.004 18.079.004h.487c6.029 0 12.052.008 18.08-.004 2.48-.004 4.891-.383 7.023-1.712 2.828-1.77 4.422-4.359 4.582-7.641.317-6.352-.316-12.575-3.265-18.364z"/>
        </g>
    </switch>
</svg>
