<svg xmlns="http://www.w3.org/2000/svg" width="28.266" height="28.266" viewBox="0 0 28.266 28.266">
    <path d="M27.747.52c-.906-.905-1.851-.503-2.842.253l2.587 2.588c.756-.992 1.159-1.936.255-2.841zM15.984 20.239l.256.254a5.63 5.63 0 0 0 1.558-4.981c.027-.026.06-.044.085-.068.68-.679 1.33-2.12.509-2.938l8.416-8.415-2.631-2.631-8.416 8.415c-.751-.753-2.258-.17-2.937.508-.026.027-.044.058-.07.087a5.618 5.618 0 0 0-4.98 1.558l.304.306c-2.343 1.1-5.02 2.18-8.016 1.72-.005-.035-.012-.055-.02-.063-.124-.122-.349 3.016 5.452 8.821l.014.013c5.964 5.96 8.755 5.433 8.755 5.433-.458-3 .621-5.676 1.721-8.019zm-6.345 4.327l3.704-4.503-4.602 3.779a35.299 35.299 0 0 1-1.899-1.734l3.852-4.695-4.692 3.851a32.797 32.797 0 0 1-1.568-1.747l3.771-4.593-4.487 3.692c-.979-1.289-1.547-2.317-1.872-3.064 2.696-.106 5.089-1.166 7.121-2.132l5.931 5.931c-.968 2.036-2.028 4.434-2.132 7.133-.745-.312-1.786-.884-3.127-1.918z"/>
</svg>
