<svg xmlns="http://www.w3.org/2000/svg" width="64" height="64" viewBox="0 0 64 64">
    <switch>
        <g>
            <path fill="#222" d="M63.999 37.098c0-.594-.047-2.426-.047-2.965 0-3.008-1.895-6.125-5.027-8.309-2.262-1.793-5.281-3.23-8.816-4.129 1.379-1.645 2.168-3.473 2.168-5.41 0-.594-.043-2.781-.043-3.309 0-4.367-3.934-8.188-9.898-10.484C38.729.934 34.28 0 29.448 0c-5.043 0-9.672 1.016-13.359 2.699-5.662 2.312-9.367 6.039-9.367 10.277 0 .242-.01.844-.021 1.477C2.59 16.754.043 19.926.043 23.437c0 .535-.043 2.719-.043 3.32 0 5.258 5.68 9.766 13.785 11.719-.471.277-.932.555-1.359.855-3.723 2.266-6.023 5.273-6.023 8.59 0 .523-.047 2.719-.047 3.316C6.354 58.293 16.562 64 29.155 64s22.801-5.707 22.801-12.762c0-.496-.027-2.043-.039-2.875 7.187-2.144 12.082-6.386 12.082-11.265zm-53.311 9.429c0-2.996 2.143-5.68 5.533-7.629.865.148 1.707.328 2.611.418 1.881 5.984 11.127 10.551 22.361 10.551 1.949 0 3.816-.164 5.621-.426-1.094 2.27-3.391 4.223-6.504 5.621-3.172 1.234-6.992 1.977-11.156 1.977-4.041 0-7.791-.684-10.926-1.844-4.549-1.968-7.54-5.101-7.54-8.668zm34.893-21.203c1.398-.781 2.594-1.668 3.594-2.629 6.312 1.707 10.719 5.414 10.719 9.742 0 2.867-1.938 5.449-5.047 7.387-3.555 1.895-8.348 3.074-13.652 3.074-4.004 0-7.678-.703-10.785-1.848-1.195-.527-2.297-1.121-3.242-1.801 10.492-1.148 18.434-6.285 18.434-12.492-.001-.261-.009-.835-.021-1.433zm2.313-13.504c0 2.785-1.852 5.297-4.809 7.215-3.555 1.887-8.324 3.062-13.609 3.062-5.359 0-10.203-1.199-13.77-3.141-2.895-1.906-4.705-4.387-4.705-7.137 0-5.953 8.262-10.789 18.447-10.789 10.188.001 18.446 4.837 18.446 10.79zM2.976 21.473c0-2.414 1.391-4.094 3.715-5.902-.008.527-.016.48-.016.715 0 7.059 10.211 12.77 22.801 12.77 3.355 0 6.531-.414 9.398-1.145-3.598 2.809-9.438 4.648-16.078 4.648-10.945 0-19.82-4.961-19.82-11.086z"/>
        </g>
    </switch>
</svg>
