<svg xmlns="http://www.w3.org/2000/svg" width="1413.055" height="2055.35" viewBox="0 0 1413.055 2055.35">
    <path d="M706.528 309.541c101.357 0 200.081 19.945 281.118 56.464 57.201-112.663 217.298-216.782 129.709-322.781-99.603-120.817-255.403 46.414-308.968 80.535-38.573 23.583-72.82 34.747-101.859 39.013-29.041-4.267-63.286-15.431-101.922-39.013-53.439-34.12-209.38-201.351-308.983-80.534-87.56 105.999 72.569 210.118 129.834 322.781 80.927-36.52 179.775-56.465 281.071-56.465zm0 89.958c-100.794 0-192.682 21.577-262.632 57.203-5.457 25.088-15.869 81.789-29.73 110.514 89.645-35.5 189.311-56.072 291.42-55.571 102.801-.752 203.03 19.695 293.224 55.446-13.798-28.727-24.21-85.301-29.73-110.39-69.872-35.626-161.822-57.202-262.552-57.202zm442.469 375.467c-90.35-105.765-254.932-190.564-443.159-189.435-187.914-.626-352.008 84.173-442.14 189.937C140.073 952.969 0 1312.694 0 1500.858c0 393.924 315.255 554.491 704.207 554.491.754 0 1.506 0 2.321-.253.752.253 1.567.253 2.32.253 388.937 0 704.206-160.567 704.206-554.491.001-188.164-140.369-548.264-264.057-725.892zm-366.701 956.207v65.261c0 33.118-31.298 59.963-69.622 59.963h-37.695c-38.387 0-69.684-26.845-69.684-59.963v-66.015c-78.339-12.795-143.522-43.654-190.815-100.604-14.112-16.308-22.894-31.862-22.894-52.687 0-39.389 31.612-71.502 70.688-71.502 25.527 0 42.039 17.562 60.291 34.622 43.591 45.661 110.265 66.485 179.446 66.485 90.82 0 176.123-32.113 176.123-116.161 0-73.007-75.517-102.863-177.252-113.902-156.427-18.817-300.891-60.965-300.891-234.768 0-125.207 95.854-192.319 205.304-215.903v-86.681c0-33.116 31.297-59.962 69.684-59.962h37.695c38.324 0 69.622 26.846 69.622 59.962v83.419c53.564 8.908 104.745 27.598 146.392 60.84 18.816 18.691 35.124 35.376 35.124 61.718 0 39.531-26.594 68.759-65.731 68.759-26.093 0-42.15-15.68-66.109-33.242-34.498-21.969-80.723-37.523-131.089-37.523-107.19 0-158.623 45.426-158.623 103.131 0 67.424 78.778 86.24 170.665 97.28 159.69 19.819 308.591 61.97 308.591 246.872 0 144.26-105.372 219.527-239.22 240.601z"/>
</svg>
