<svg xmlns="http://www.w3.org/2000/svg" width="173.158" height="130.303" viewBox="0 0 173.158 130.303">
    <path d="M86.697 81.332h-.235c-23.399.017-46.804 2.086-69.919 6.268l6.646 28.451a366.336 366.336 0 0 1 126.789 0l6.64-28.451c-23.12-4.182-46.514-6.251-69.921-6.268zM86.697 117.59h-.235v.017a357.572 357.572 0 0 0-61.664 5.338l1.723 7.358a349.635 349.635 0 0 1 60.06-5.17 349.686 349.686 0 0 1 60.057 5.17l1.724-7.358a357.53 357.53 0 0 0-61.664-5.338v-.017z"/>
    <path d="M166.304 10.038c-6.127-3.29-13.767-.924-16.986 5.279-3.296 6.137-.956 13.788 5.208 17.083.638.329 4.376 1.804 6.575 1.178l-16.159 30.628c-.524-.07-1.021-.168-1.523-.243-.185-17.392-20.822-32.946-21.001-32.816-.124-.156-22.945 11.881-25.916 29.023-.498 0-1.006 0-1.497-.021-1.54-8.58-1.982-24.825-1.961-31.109 5.56-2.372 9.449-7.656 9.449-13.853C102.492 6.813 95.366 0 86.581 0c-8.788 0-15.914 6.813-15.914 15.187 0 6.197 3.89 11.481 9.452 13.853.022 6.284-.429 22.529-1.966 31.109-.492.021-1 .021-1.504.021-2.959-17.143-25.783-29.18-25.91-29.024-.178-.129-20.809 15.425-21.003 32.816-.494.075-.997.173-1.513.243l-16.16-30.628c2.194.626 5.932-.849 6.567-1.178 6.167-3.296 8.504-10.946 5.214-17.083-3.223-6.203-10.87-8.569-16.986-5.279C.667 13.289-1.4 19.627.931 28.277c1.267 4.695 14.217 53.346 14.217 53.346a399.143 399.143 0 0 1 71.432-6.396 399.2 399.2 0 0 1 71.435 6.396s12.945-48.651 14.209-53.346c2.335-8.649.265-14.986-5.92-18.239z"/>
</svg>
