<svg xmlns="http://www.w3.org/2000/svg" width="2054.952" height="2055" viewBox="0 0 2054.952 2055">
    <path d="M944.154 402.998c-293.625 0-541.093 193.283-617.166 456.806a76.706 76.706 0 0 0-2.069 7.149c-.502 2.132-1.192 4.139-1.756 6.146l.563.125c-.563 3.888-1.003 7.902-1.003 12.041 0 44.276 36.688 80.148 81.904 80.148 39.824 0 72.999-27.97 80.336-64.846 57.761-194.913 241.637-337.9 459.191-337.9 263.663 0 478.27 209.965 478.27 468.094 0 142.235-65.097 275.188-178.357 364.617l-6.647 5.143-6.021 6.021c-74.504 72.497-145.496 161.425-210.984 264.4-18.814 28.849-34.493 56.191-48.29 80.273-39.635 69.236-60.205 104.983-119.972 138.221-10.473 3.889-19.754 5.896-27.594 5.896-8.403 0-16.493-3.01-23.893-7.274-1.003-.627-1.945-1.129-2.885-1.882-1.379-.753-2.634-1.505-3.888-2.509 0 0-.126.126-.126.251-11.665-6.271-25.085-9.783-39.322-9.783-45.154 0-81.841 35.872-81.841 80.022 0 17.561 5.832 33.74 15.553 46.91 0 .251-.125.502-.125.502 0 .501-.501 1.378-1.38 2.635 4.703 3.887 9.72 7.525 14.926 11.162 5.393 4.391 11.288 8.027 17.685 11.037 28.911 16.557 64.093 28.598 105.295 28.598 29.727 0 62.526-6.271 98.398-21.573 138.424-72.873 163.886-167.696 235.442-277.319 47.788-75.257 111.254-161.676 188.016-236.431 145.746-115.143 239.064-291.242 239.064-488.916.001-346.682-287.102-627.764-641.324-627.764z"/>
    <path d="M1374.135 1043.43c0-232.166-192.28-420.307-429.417-420.307-176.225 0-327.616 104.104-393.716 252.736-3.072 6.898-4.892 14.675-4.892 22.702 0 31.231 25.963 56.568 57.885 56.568 25.21 0 46.659-15.929 54.561-38.004h.313c49.293-106.488 158.854-180.866 285.849-180.866 173.043 0 313.772 137.719 313.772 307.172 0 50.923-12.793 98.836-35.245 141.105-7.525 9.658-12.041 21.573-12.041 34.618 0 31.607 26.089 57.194 58.449 57.194 24.835 0 46.032-15.051 54.436-36.374 31.733-58.701 50.046-125.427 50.046-196.544z"/>
    <path fill-rule="evenodd" clip-rule="evenodd" d="M1718.809 0l-338.403 349.942 336.271 309.053 338.276-349.942L1718.809 0zM0 1744.442l336.208 309.053 405.256-424.571-336.208-308.928L0 1744.442z"/>
</svg>
