<svg xmlns="http://www.w3.org/2000/svg" width="64" height="64" viewBox="0 0 64 64">
    <path fill="#222" d="M24.748 33.274L5.303 22.524C2.434 20.93.071 22.235.063 25.415L0 43.845c-.01 3.184 2.332 7.086 5.209 8.672l19.539 10.805c2.875 1.59 5.23.289 5.23-2.887V41.946c.001-3.179-2.355-7.078-5.23-8.672zM9.467 49.884c0 .711-.525 1.004-1.168.648l-4.357-2.414c-.645-.352-1.166-1.227-1.164-1.934l.012-4.113c.004-.707.531-1 1.172-.645L8.3 43.824c.643.355 1.168 1.227 1.168 1.938v4.122zm8.627-3.285c0 .715-.525 1.004-1.166.648l-4.361-2.414c-.641-.352-1.162-1.227-1.162-1.934l.014-4.109c.004-.711.529-1.004 1.17-.648l4.34 2.398c.641.359 1.166 1.227 1.166 1.938v4.121zm8.629-3.286c0 .711-.527 1.004-1.168.645l-4.359-2.41c-.641-.355-1.164-1.227-1.164-1.93l.016-4.113c.004-.711.531-1.004 1.172-.652l4.336 2.402c.641.355 1.168 1.227 1.168 1.938v4.12zm31.211-24.667c2.816-1.559 2.949-4.047.465-5.723L38.352 1.708S35.563.001 32.055.001c-3.844 0-6.402 1.707-6.402 1.707L5.605 12.923c-2.492 1.676-2.355 4.164.465 5.723l20.434 11.309c1.496.824 3.467 1.223 5.443 1.223v.008h.107v-.008c1.975 0 3.943-.398 5.441-1.223l20.439-11.309zm-25.918-.668v.004h-.029v-.004c-.545 0-1.088-.109-1.502-.34l-5.633-3.113c-.777-.43-.816-1.117-.129-1.578l5.527-3.09s.707-.477 1.766-.477c.967 0 1.734.477 1.734.477l5.527 3.09c.688.461.648 1.148-.125 1.578l-5.639 3.113c-.411.23-.954.34-1.497.34zm31.922 7.437c-.008-3.18-2.371-4.484-5.242-2.891l-19.441 10.75c-2.875 1.594-5.23 5.492-5.23 8.672v18.488c0 3.176 2.355 4.477 5.23 2.887l19.539-10.805c2.879-1.586 5.219-5.488 5.207-8.672l-.063-18.429zM46.945 43.134l-4.789 2.648c-.703.391-1.277.078-1.277-.703v-4.531c0-.777.574-1.738 1.277-2.125l4.766-2.633c.707-.391 1.285-.07 1.285.707l.016 4.512c0 .781-.571 1.738-1.278 2.125zm11.793 4.429l-4.789 2.648c-.703.391-1.281.07-1.281-.711v-4.53c0-.781.578-1.734 1.281-2.125l4.766-2.633c.703-.391 1.281-.066 1.285.711l.016 4.516c.004.781-.571 1.734-1.278 2.124z"/>
</svg>
