<svg xmlns="http://www.w3.org/2000/svg" width="1530.04" height="2040.158" viewBox="0 0 1530.04 2040.158">
    <path d="M1229.322 199.608H300.781c-58.712 0-106.216 48.688-106.216 108.707v1423.529c0 60.144 47.504 108.831 106.216 108.831h928.541c58.648 0 106.216-48.688 106.216-108.831V308.314c0-60.018-47.567-108.706-106.216-108.706zm-92.769 915.73c-51.303 0-92.893-42.711-92.893-95.134 0-52.674 41.59-95.259 92.893-95.259s92.77 42.585 92.77 95.259c-.001 52.423-41.468 95.134-92.77 95.134z"/>
    <path d="M1229.322 108.957c107.336 0 194.626 89.531 194.626 199.358v1423.529c0 110.076-87.29 199.607-194.626 199.607H300.781c-107.338 0-194.626-89.531-194.626-199.607V308.314c0-109.827 87.289-199.358 194.626-199.358h928.541m0-108.956H300.781C134.919 0 0 138.344 0 308.314v1423.529c0 170.095 134.919 308.314 300.781 308.314h928.541c165.861 0 300.718-138.22 300.718-308.314V308.314C1530.04 138.344 1395.184 0 1229.322 0z"/>
</svg>
