<svg xmlns="http://www.w3.org/2000/svg" width="1281.268" height="2049.996" viewBox="0 0 1281.268 2049.996">
    <path d="M929.674 649.634L303.688 182.177c-74.072-47.295-140.841 25.525-140.841 75.825V1431.43c0 37.286 18.582 88.587 86.475 130.253l639.562 470.583c85.083 58.057 88.837-40.789 88.837-91.088V749.497c0-50.299-6.506-69.567-48.047-99.863zm-118.616 775.414c-42.979 0-77.826-35.66-77.826-79.703s34.847-79.703 77.826-79.703c43.042 0 77.826 35.66 77.826 79.703s-34.784 79.703-77.826 79.703z"/>
    <path d="M1029.521 0H251.824C112.923 0 0 115.737 0 258.002v1191.57c0 142.264 112.923 258.127 251.824 258.127h68.942s-147.66-107.604-161.172-120.492c-42.729-30.154-70.757-80.704-70.757-137.635V258.002c0-92.09 73.071-167.039 162.987-167.039h777.697c89.838 0 162.909 74.949 162.909 167.039v1191.57c0 84.332-61.31 154.275-140.638 165.411v91.59c128.376-11.636 229.475-122.494 229.475-257.001V258.002C1281.268 115.737 1168.407 0 1029.521 0z"/>
</svg>
