<svg xmlns="http://www.w3.org/2000/svg" width="2036" height="1272.5" viewBox="0 0 2036 1272.5">
    <switch>
        <g>
            <path fill="#222" d="M1910.242 473.211h-44.488c-20.256 0-39.27 3.604-56.293 9.941V252.387c0-50.701-56.293-91.958-125.76-91.958h-44.488c-20.379 0-39.641 3.604-56.666 9.817V92.082c0-50.825-56.293-92.082-125.634-92.082h-44.612c-69.342 0-125.635 41.257-125.635 92.082v400.142H749.395V92.082C749.395 41.257 693.102 0 623.699 0h-44.551c-69.402 0-125.696 41.257-125.696 92.082v78.165c-17.025-6.213-36.287-9.817-56.666-9.817h-44.488c-69.466 0-125.759 41.257-125.759 91.958v230.765c-16.9-6.338-36.038-9.941-56.293-9.941h-44.488C56.293 473.211 0 514.468 0 565.417v154.465c0 50.825 56.293 92.082 125.758 92.082h44.488c20.256 0 39.393-3.604 56.293-9.817v227.658c0 50.95 56.293 92.207 125.759 92.207h44.488c20.379 0 39.641-3.604 56.666-9.941v68.223c0 50.949 56.293 92.207 125.696 92.207h44.551c69.403 0 125.696-41.257 125.696-92.207v-389.58H1286.666v389.579c0 50.949 56.293 92.207 125.635 92.207h44.612c69.341 0 125.634-41.257 125.634-92.207v-68.223c17.025 6.338 36.287 9.941 56.666 9.941h44.488c69.467 0 125.76-41.256 125.76-92.207V802.147c17.023 6.214 36.037 9.817 56.293 9.817h44.488c69.465 0 125.758-41.257 125.758-92.082V565.417c0-50.949-56.293-92.206-125.758-92.206zM226.54 719.882c-2.237 5.965-21.871 22.243-56.293 22.243h-44.488c-35.043 0-54.801-17.024-56.542-22.492V565.666c1.74-5.592 21.498-22.617 56.542-22.617h44.488c34.422 0 54.057 16.279 56.293 22.244v154.589zm226.788 309.675c-1.801 5.716-21.498 22.617-56.542 22.617h-44.488c-35.043 0-54.74-16.9-56.542-22.617v-307.19c.061-.746.186-1.74.186-2.485V565.417c0-.994-.125-1.74-.186-2.734V252.636c1.801-5.468 21.498-22.369 56.542-22.369h44.488c35.043 0 54.74 16.9 56.542 22.369v776.921zm226.851 150.488c-1.802 5.716-21.562 22.617-56.48 22.617h-44.551c-34.98 0-54.739-16.9-56.479-22.617V92.331c1.74-5.716 21.498-22.492 56.479-22.492h44.551c34.918 0 54.678 16.776 56.48 22.492v1087.714zm606.487-459.169H749.395V561.938H1286.666v158.938zm226.664 459.169c-1.74 5.716-21.498 22.617-56.417 22.617h-44.612c-34.918 0-54.678-16.9-56.418-22.617V92.331c1.74-5.716 21.5-22.492 56.418-22.492h44.612c34.919 0 54.677 16.776 56.417 22.492v1087.714zm226.912-617.361c0 .994-.248 1.74-.248 2.734v154.465c0 .745.248 1.739.248 2.485v307.189c-1.738 5.716-21.498 22.617-56.541 22.617h-44.488c-34.918 0-54.801-16.9-56.541-22.617v-776.92c1.74-5.468 21.623-22.369 56.541-22.369h44.488c35.043 0 54.803 16.9 56.541 22.369v310.047zm226.541 156.949c-1.74 5.468-21.498 22.492-56.541 22.492h-44.488c-34.422 0-54.057-16.278-56.293-22.243V565.293c2.236-5.965 21.871-22.244 56.293-22.244h44.488c35.043 0 54.801 17.024 56.541 22.617v153.967z"/>
        </g>
    </switch>
</svg>
