<svg xmlns="http://www.w3.org/2000/svg" width="64" height="64" viewBox="0 0 64 64">
    <switch>
        <g>
            <path fill="#222" d="M32.005 28.113a3.886 3.886 0 1 0 0 7.774c2.146 0 3.887-1.738 3.887-3.887s-1.741-3.887-3.887-3.887zm0-28.113c-17.674 0-32 14.328-32 32s14.326 32 32 32c17.672 0 32-14.328 32-32s-14.328-32-32-32zM14.509 56.582a30.494 30.494 0 0 1-7.877-8.027l15.893-9.52c.613.777 1.32 1.477 2.109 2.078L14.509 56.582zm17.496-13.949c-5.871 0-10.631-4.762-10.631-10.633s4.76-10.633 10.631-10.633S42.634 26.129 42.634 32s-4.758 10.633-10.629 10.633zm9.047-18.235a11.913 11.913 0 0 0-2.172-2.012l9.621-15.785a30.422 30.422 0 0 1 8.129 7.773L41.052 24.398z"/>
        </g>
    </switch>
</svg>
