<svg xmlns="http://www.w3.org/2000/svg" width="1663.875" height="2047.846" viewBox="0 0 1663.875 2047.846">
    <switch>
        <g>
            <path fill="#222" d="M1184.286 754.068l347.849-454.091-263.355-82.244L1089.543 0H584.956L406.094 217.733l-263.73 82.244 315.039 411.219-137.616-94.369C125.241 763.692 0 991.675 0 1247.531c0 441.967 372.472 800.314 831.938 800.314 459.465 0 831.938-358.348 831.938-800.314 0-255.481-125.116-482.339-318.477-628.828l-161.113 135.365zm-352.348 1006.3c-294.353 0-533.085-229.608-533.085-512.837 0-283.104 238.732-512.712 533.085-512.712 294.354 0 533.085 229.608 533.085 512.712-.001 283.229-238.732 512.837-533.085 512.837z"/>
        </g>
    </switch>
</svg>
