<svg xmlns="http://www.w3.org/2000/svg" width="2040" height="1785" viewBox="0 0 2040 1785">
    <path d="M1949.355 33.37c-.871.498-1.867.747-2.739 1.494C1943.628 15.314 1905.278 0 1858.338 0c-47.066 0-85.415 15.314-88.403 34.863-.996-.747-1.868-.996-2.739-1.494l-63.502 892.375-117.787-23.532-57.898-792.393c-.747.249-1.743.374-2.489.747-2.491-16.561-35.362-29.883-76.202-29.883-40.342 0-73.462 13.322-75.952 29.883-.996-.373-1.743-.499-2.366-.747l-29.509 487.09-144.932-34.863-31.626-516.226c-.997.498-1.744.872-2.615 1.121-2.988-19.299-41.65-34.49-88.528-34.49-47.065 0-85.415 15.191-88.403 34.49-.872-.249-1.868-.623-2.74-1.121l-27.143 458.079-219.764-53.167L1.058 716.814 0 761.016v826.509L822.026 1785 2040 1525.144 1949.355 33.37zm-47.065 1149.491v140.947L879.612 1417.69v-385.488l1022.678 150.659zm-1782.012-19.673l642.917-126.255v381.628l-642.917-47.064v-208.309z"/>
</svg>
