<svg xmlns="http://www.w3.org/2000/svg" width="1922.812" height="2051" viewBox="0 0 1922.812 2051">
    <g fill-rule="evenodd" clip-rule="evenodd">
        <path d="M1327.567 0H413.855C282.163 0 175.444 104.027 175.444 232.465v1579.561h1390.597V232.465C1566.041 104.027 1459.26 0 1327.567 0zm33.799 649.951c0 90.507-75.36 163.99-168.246 163.99H548.302c-92.886 0-168.183-73.482-168.183-163.99V333.112c0-90.633 75.297-164.115 168.183-164.115h644.818c92.886 0 168.246 73.482 168.246 164.115v316.839z"/>
        <path d="M1741.422 1931.325c0 66.222-54.83 119.675-122.429 119.675H122.554C54.83 2051 0 1997.547 0 1931.325c0-65.847 54.83-119.3 122.554-119.3h1496.439c67.599 0 122.429 53.454 122.429 119.3zM1726.65 654.082l-91.008-66.097-.876-106.03-151.472-92.761 22.282-100.897 362.53 237.347c91.886 61.84-28.541 190.278-141.456 128.438zM1788.992 718.802c-15.397 0-30.295-1.878-45.066-5.759v682.248s10.015 161.611-139.829 161.611h-89.381c-60.464 0-109.16 28.291-109.16 87.128 0 58.836 48.696 87.127 109.16 87.127h145.588c258.378 0 262.509-268.143 262.509-268.143V668.478c0-4.131-.125-8.137-.501-12.268-29.918 37.931-80.243 62.592-133.32 62.592z"/>
    </g>
</svg>
