<?xml version="1.0" encoding="utf-8"?>
<!-- Generator: Adobe Illustrator 16.0.0, SVG Export Plug-In . SVG Version: 6.00 Build 0)  -->
<!DOCTYPE svg PUBLIC "-//W3C//DTD SVG 1.1//EN" "http://www.w3.org/Graphics/SVG/1.1/DTD/svg11.dtd">
<svg version="1.1" id="Layer_1" xmlns="http://www.w3.org/2000/svg" xmlns:xlink="http://www.w3.org/1999/xlink" x="0px" y="0px"
	 width="2038.991px" height="2038.988px" viewBox="0 0 2038.991 2038.988" enable-background="new 0 0 2038.991 2038.988"
	 xml:space="preserve">
<path fill-rule="evenodd" clip-rule="evenodd" d="M2015.327,163.917L1876.439,25.029c-35.843-35.577-103.046-26.493-115.741-13.689
	L1523.12,248.793c-8.213,8.214-3.484,27.13,10.33,49.159l-356.429,356.179c-279.068-257.49-494.555,42.066-508.619,203.853
	c-27.566,316.978-321.209,14.312-586.026,278.896c-191.158,190.908-10.703,506.269,147.646,671.789c0,0.249,0.124,0.249,0.249,0.249
	c0,0,0.062,0.124,0.124,0.249v-0.125c165.707,158.426,481.192,338.632,672.287,147.601
	c264.911-264.585-38.019-557.917,279.066-585.67c162.037-14.062,461.717-229.238,204.101-508.135l356.43-356.18
	c21.903,13.814,40.945,18.419,49.159,10.205l234.714-234.467C2038.971,269.577,2051.168,199.635,2015.327,163.917z
	 M557.517,1843.516c-13.379,13.44-35.095,13.44-48.536,0l-321.895-321.708c-13.379-13.315-13.379-35.094,0-48.411
	c13.441-13.44,35.159-13.44,48.536,0l321.895,321.583C570.894,1808.42,570.894,1830.075,557.517,1843.516z M1149.796,1102.905
	c-57.869,57.62-151.598,57.62-209.53,0c-0.498-0.623-0.995-1.121-1.493-1.618c-0.062,0-0.124-0.249-0.186-0.249
	c-0.063,0-0.125,0-0.187-0.249c-0.498-0.498-1.058-0.996-1.619-1.494c-57.808-57.745-57.808-151.458,0-209.327
	c57.933-57.746,151.66-57.746,209.53,0l1.618,1.617c0,0.125,0.124,0.125,0.124,0.25c0.125,0,0.125,0.124,0.249,0.248v-0.124
	c0.498,0.498,0.995,0.996,1.493,1.494C1207.635,951.198,1207.635,1045.034,1149.796,1102.905z"/>
</svg>
