<svg xmlns="http://www.w3.org/2000/svg" width="2038.991" height="2038.988" viewBox="0 0 2038.991 2038.988">
    <path fill-rule="evenodd" clip-rule="evenodd" d="M2015.327 163.917L1876.439 25.029c-35.843-35.577-103.046-26.493-115.741-13.689L1523.12 248.793c-8.213 8.214-3.484 27.13 10.33 49.159l-356.429 356.179c-279.068-257.49-494.555 42.066-508.619 203.853-27.566 316.978-321.209 14.312-586.026 278.896-191.158 190.908-10.703 506.269 147.646 671.789 0 .249.124.249.249.249l.124.249v-.125c165.707 158.426 481.192 338.632 672.287 147.601 264.911-264.585-38.019-557.917 279.066-585.67 162.037-14.062 461.717-229.238 204.101-508.135l356.43-356.18c21.903 13.814 40.945 18.419 49.159 10.205l234.714-234.467c12.819-12.819 25.016-82.761-10.825-118.479zM557.517 1843.516c-13.379 13.44-35.095 13.44-48.536 0l-321.895-321.708c-13.379-13.315-13.379-35.094 0-48.411 13.441-13.44 35.159-13.44 48.536 0l321.895 321.583c13.377 13.44 13.377 35.095 0 48.536zm592.279-740.611c-57.869 57.62-151.598 57.62-209.53 0-.498-.623-.995-1.121-1.493-1.618-.062 0-.124-.249-.186-.249-.063 0-.125 0-.187-.249a37.863 37.863 0 0 0-1.619-1.494c-57.808-57.745-57.808-151.458 0-209.327 57.933-57.746 151.66-57.746 209.53 0l1.618 1.617c0 .125.124.125.124.25.125 0 .125.124.249.248v-.124l1.493 1.494c57.84 57.745 57.84 151.581.001 209.452z"/>
</svg>
