<svg xmlns="http://www.w3.org/2000/svg" width="1919.182" height="2047.143" viewBox="0 0 1919.182 2047.143">
    <path d="M1833.344 797.433S1715.143-17.336 960.208.282C205.352-17.336 87.026 797.433 87.026 797.433 22.678 880.148 0 900.39 0 900.39s87.026 328.098 177.801 665.581l146.188 50.354 117.389-9.621c249.567-14.369 124.745-459.684 124.745-459.684C480.408 689.728 266.14 747.204 266.14 747.204c-60.601-193.919 136.005-416.56 136.005-416.56s69.394 44.34 209.335-56.228c184.798-129.195 540.399-122.074 697.333 0 139.942 100.568 209.412 56.228 209.412 56.228s196.669 222.641 136.069 416.56c0 0-214.286-57.476-300.126 399.817 0 0-124.822 445.314 124.823 459.684 0 0 16.493 114.951-94.585 172.429-142.815 73.844-337.859 110.078-337.859 110.078s-30.237 197.417 52.853 150.811c83.341-46.604 360.726-164.055 360.726-164.055s126.071-36.984 136.192-259.642l146.314-50.354c90.712-337.483 176.55-655.835 176.55-655.835s-21.49-29.989-85.838-112.704z"/>
</svg>
