<?xml version="1.0" encoding="utf-8"?>
<!-- Generator: Adobe Illustrator 16.0.0, SVG Export Plug-In . SVG Version: 6.00 Build 0)  -->
<!DOCTYPE svg PUBLIC "-//W3C//DTD SVG 1.1//EN" "http://www.w3.org/Graphics/SVG/1.1/DTD/svg11.dtd">
<svg version="1.1" id="Layer_1" xmlns="http://www.w3.org/2000/svg" xmlns:xlink="http://www.w3.org/1999/xlink" x="0px" y="0px"
	 width="1919.182px" height="2047.143px" viewBox="0 0 1919.182 2047.143" enable-background="new 0 0 1919.182 2047.143"
	 xml:space="preserve">
<path d="M1833.344,797.433c0,0-118.201-814.769-873.136-797.151C205.352-17.336,87.026,797.433,87.026,797.433
	C22.678,880.148,0,900.39,0,900.39s87.026,328.098,177.801,665.581l146.188,50.354l117.389-9.621
	c249.567-14.369,124.745-459.684,124.745-459.684C480.408,689.728,266.14,747.204,266.14,747.204
	c-60.601-193.919,136.005-416.56,136.005-416.56s69.394,44.34,209.335-56.228c184.798-129.195,540.399-122.074,697.333,0
	c139.942,100.568,209.412,56.228,209.412,56.228s196.669,222.641,136.069,416.56c0,0-214.286-57.476-300.126,399.817
	c0,0-124.822,445.314,124.823,459.684c0,0,16.493,114.951-94.585,172.429c-142.815,73.844-337.859,110.078-337.859,110.078
	s-30.237,197.417,52.853,150.811c83.341-46.604,360.726-164.055,360.726-164.055s126.071-36.984,136.192-259.642l146.314-50.354
	c90.712-337.483,176.55-655.835,176.55-655.835S1897.692,880.148,1833.344,797.433z"/>
</svg>
