<svg xmlns="http://www.w3.org/2000/svg" width="48" height="64" viewBox="0 0 48 64">
    <switch>
        <g>
            <path fill="#222" d="M48 16.141V6.75C41.398 2.535 33.117 0 24.09 0c-.033 0-.063.004-.09.004-.031 0-.059-.004-.09-.004C14.885 0 6.605 2.535 0 6.75v9.391c1.492 7.57 8.195 13.711 17.004 15.855C8.238 34.125 1.549 40.211.01 47.727c-.004-.004-.004-.008-.01-.012v9.535c.01.004.021.008.025.016.014 0 .018.004.025.012a42.683 42.683 0 0 0 4.039 2.238c.033.02.057.035.084.055v-.008C9.967 62.363 16.695 64 23.91 64c.031 0 .059-.004.09-.004.027 0 .057.004.09.004 7.215 0 13.941-1.637 19.738-4.438v.008c.027-.02.047-.035.082-.055a42.727 42.727 0 0 0 4.043-2.238c0-.008.008-.012.023-.012.008-.008.016-.012.023-.016v-9.535c-.008.004-.008.008-.008.012-1.543-7.516-8.234-13.602-17-15.73C39.805 29.852 46.508 23.711 48 16.141zm-7.105 34.902v2.875a.089.089 0 0 1-.035.012c-3.816-.898-9.895-1.488-16.77-1.488-.033 0-.062.004-.09.004-.031 0-.059-.004-.09-.004-6.875 0-12.957.59-16.77 1.488a.087.087 0 0 1-.037-.012v-2.875c0-5.422 3.971-10.348 9.895-12.547 1.838-.828 3.236-8.184 2.354-9.996 0 0 5.094 11.102 3.207 23.941h2.886C23.557 39.602 28.648 28.5 28.648 28.5c-.887 1.812.078 9.207 2.234 9.949 5.985 2.18 10.013 7.133 10.013 12.594zm0-38.086c0 2.34-.754 4.578-2.062 6.551-3.137-1.344-8.551-2.242-14.742-2.242-.033 0-.062.004-.09.004-.031 0-.059-.004-.09-.004-6.189 0-11.604.898-14.74 2.242-1.309-1.973-2.066-4.211-2.066-6.551v-2.879c5.033-2.617 10.783-3.98 16.807-3.98.027 0 .051.004.076.004H24.014c.027 0 .051-.004.078-.004 6.027 0 11.773 1.363 16.805 3.98v2.879z"/>
        </g>
    </switch>
</svg>
