<svg xmlns="http://www.w3.org/2000/svg" width="64" height="44" viewBox="0 0 64 44">
    <switch>
        <g>
            <path fill="#222" d="M58.555 0H5.445C2.439 0 0 2.473 0 5.52v32.96C0 41.531 2.439 44 5.445 44h53.109C61.562 44 64 41.531 64 38.48V5.52C64 2.473 61.562 0 58.555 0zM21.301 24.945l.283.285-1.129 1.266a1.054 1.054 0 0 1-.217 1.668l.561 7.348h-2.783l.561-7.348a1.061 1.061 0 0 1-.533-.898c-.004-.297.117-.57.314-.77L17.23 25.23l.279-.285a2.368 2.368 0 0 1-.631-.676s.516.598 2.072.598c.154-.004.756-.004.912 0 1.551 0 2.072-.598 2.072-.598a2.256 2.256 0 0 1-.633.676zm12.941 10.567H32.39c.004-1.391.012-2.684.02-2.805.055-1.148.121-2.449-.207-3.691-.398-1.508-1.287-2.629-2.719-3.441-5.125-2.629-5.152-2.043-6.586-2.59.051-.184.133-1.188.203-1.383.057-.172.125-.359.186-.559.402-.227.736-.602.955-1.086.373-.809.43-1.93.121-2.551l-.051-.094-.066-.086c-.035-.039-.07-.082-.113-.113.453-1.992-.055-3.859-1.408-5.113-.934-.867-1.768-1.371-3.23-1.414v-.004h-.172v.004c-1.465.043-2.299.547-3.232 1.414-1.352 1.254-1.861 3.121-1.408 5.113a.741.741 0 0 0-.111.113l-.068.086-.049.094c-.309.621-.254 1.742.121 2.551.219.484.551.859.953 1.086.062.199.131.387.186.559.072.195.154 1.199.205 1.383-1.434.547-1.461-.039-6.588 2.59-1.43.812-2.32 1.934-2.719 3.441-.328 1.242-.26 2.543-.205 3.691.008.121.016 1.414.02 2.805H4.574V6.898h29.668v28.614zm24.278-3.43H39.219c-.5 0-.906-.566-.906-1.27 0-.695.406-1.262.906-1.262H58.52c.504 0 .91.566.91 1.262 0 .704-.407 1.27-.91 1.27zm0-6.594H39.219c-.5 0-.906-.566-.906-1.266s.406-1.266.906-1.266H58.52c.504 0 .91.566.91 1.266s-.407 1.266-.91 1.266zm0-6.593H39.219c-.5 0-.906-.566-.906-1.266s.406-1.262.906-1.262H58.52c.504 0 .91.562.91 1.262s-.407 1.266-.91 1.266zm0-6.59H39.219c-.5 0-.906-.566-.906-1.27 0-.695.406-1.262.906-1.262H58.52c.504 0 .91.566.91 1.262 0 .703-.407 1.27-.91 1.27z"/>
        </g>
    </switch>
</svg>
