<svg xmlns="http://www.w3.org/2000/svg" width="64" height="32" viewBox="0 0 64 32">
    <switch>
        <g>
            <path fill="#222" d="M38.815 4.841l-2.746 2.715c-.004.008-.02.02-.023.023a3.106 3.106 0 0 0 .004 4.434 3.179 3.179 0 0 0 4.473.004c.031-.031.074-.07.105-.102l2.688-2.656c4.703-4.648 9.75-1.473 11.336.094 1.859 1.84 2.816 4.062 2.867 6.664.055 2.597-.852 4.82-2.711 6.664-5.078 5.016-9.781 1.441-11.395-.152L39.05 18.22v.004L25.396 4.736c-3.262-3.223-11.515-8.886-20.648.14C1.629 7.962.049 11.701.01 16.103c-.035 4.398 1.504 8.144 4.627 11.222 2.873 2.848 11.639 8.656 20.564-.164l2.748-2.719c.006-.008.018-.016.023-.02a3.112 3.112 0 0 0-.002-4.438 3.182 3.182 0 0 0-4.473-.004l-.105.105-2.689 2.656c-4.701 4.645-9.751 1.473-11.332-.098C7.51 20.81 6.553 18.587 6.5 15.986c-.055-2.602.854-4.824 2.713-6.664 5.078-5.016 9.781-1.441 11.392.152L38.62 27.263c3.266 3.223 11.516 8.887 20.648-.141 3.121-3.082 4.703-6.82 4.742-11.226.035-4.398-1.508-8.141-4.629-11.223-2.87-2.843-11.636-8.655-20.566.168z"/>
        </g>
    </switch>
</svg>
