<svg xmlns="http://www.w3.org/2000/svg" width="2030.857" height="1777" viewBox="0 0 2030.857 1777">
    <path d="M0 1777h2030.857c-207.994-94.577-532.629-159.156-903.498-170.188l-39.294-1003.529c41.772-16.982 75.116-48.343 94.948-87.14h329.841l-213.572 631.792h-139.075c0 171.056 189.028 310.009 422.186 310.009s422.187-138.953 422.187-310.009h-139.076l-213.571-631.792 32.475-134.614h-491.724c-18.098-53.423-61.11-95.567-116.269-113.789l-2.231-63.96c33.22-19.337 55.407-54.167 55.407-94.082C1129.59 49.086 1078.521 0 1015.429 0S901.205 49.086 901.205 109.698c0 39.915 22.25 74.745 55.47 94.082l-2.231 63.96c-55.159 18.222-98.171 60.366-116.269 113.789H346.451l20.204 134.614-201.301 595.721H26.34c0 171.181 188.967 309.76 422.125 309.76 233.095 0 422.125-138.579 422.125-309.76H731.575L530.274 516.143h317.507c19.895 38.797 53.237 70.158 95.011 87.14l-39.294 1003.529C532.628 1617.844 208.056 1682.423 0 1777zm1719.609-629.065h-274.433l137.216-405.823 137.217 405.823zm-1133.928-36.071H311.248l137.216-405.947 137.217 405.947z"/>
</svg>
