<svg xmlns="http://www.w3.org/2000/svg" width="56" height="64" viewBox="0 0 56 64">
    <switch>
        <g>
            <g fill="#222">
                <path d="M13.734 14.198c0-7.844 6.367-14.199 14.227-14.199 7.859 0 14.226 6.355 14.226 14.199a14.1 14.1 0 0 1-1.266 5.859L27.96 43.385S15.747 22.026 14.702 19.362a14.152 14.152 0 0 1-.968-5.164z"/>
                <path d="M44.854 9.424c.43 1.52.668 3.117.668 4.773 0 .348-.016.691-.035 1.035l5.176 1.672V51.81L39.69 48.264l-2.215-.715-2.031 1.133-16.343 9.086-13.758-9.043V15.377l5.77 3.789a17.576 17.576 0 0 1-.619-6.789L.001 5.487v46.109l18.871 12.402 19.173-10.66 17.953 5.801V13.026L44.854 9.424z"/>
            </g>
        </g>
    </switch>
</svg>
