<svg xmlns="http://www.w3.org/2000/svg" width="56" height="64" viewBox="0 0 56 64">
    <switch>
        <g>
            <path fill="#222" d="M36.222 26.926v-3.281L16.414 0H-.002L19.64 23.48v3.508c-6.395 3.156-10.809 9.82-10.809 17.535C8.832 55.281 17.414 64 27.998 64c10.583 0 19.166-8.719 19.166-19.477-.001-7.765-4.474-14.468-10.942-17.597zM27.998 57.43c-7.016 0-12.699-5.777-12.699-12.906s5.684-12.91 12.699-12.91c7.013 0 12.701 5.781 12.701 12.91S35.011 57.43 27.998 57.43zM55.995 0H38.769L30.65 9.703 39.265 20l16.73-20z"/>
        </g>
    </switch>
</svg>
