<svg xmlns="http://www.w3.org/2000/svg" width="1748.409" height="1529.893" viewBox="0 0 1748.409 1529.893">
    <switch>
        <g>
            <g fill="#222">
                <path d="M1235.109 1519.729c-13.553 13.553-35.43 13.553-48.876 0L77.794 401.779c-13.499-13.768-13.499-35.75 0-49.516l118.186-119.2c13.499-13.659 35.376-13.659 48.929 0l1108.333 1118.164c13.553 13.446 13.553 35.643 0 49.195l-118.133 119.307z"/>
                <path d="M1686.403 312.885c33.935 33.295 52.077 121.655-141.61 213.002-197.1 93.055-22.303 230.929-22.303 230.929-49.303-73.846 125.603-160.284 125.603-160.284 189.31-126.349 55.81-266.679 38.31-283.647zm-447.559 476.587H715.945l68.617 57.211h435.287v181.308h-97.217l56.771 57.092h59.439c20.916 0 37.777-17.074 37.777-38.096V827.582c.002-21.023-16.859-38.11-37.775-38.11zm222.178 0h-108.741c-20.81 0-37.776 17.087-37.776 38.11v219.404c0 21.021 16.967 38.096 37.776 38.096h108.741c20.917 0 37.885-17.074 37.885-38.096V827.582c0-21.023-16.968-38.11-37.885-38.11zm-18.887 238.518h-70.965V846.683h70.965v181.307zm69.044-558.661c311.179-207.667 91.561-438.489 63.068-466.342 55.598 54.958 85.478 200.09-232.957 350.343-324.091 152.814-36.604 379.582-36.604 379.582-80.996-121.227 206.493-263.583 206.493-263.583zM350.663 1027.99V846.683h78.488l-56.772-57.211H37.83c-20.862 0-37.83 17.087-37.83 38.11v219.404c0 21.021 16.968 38.096 37.83 38.096h933.002l-52.13-57.092H350.663zM1571.258 0c.748.747 1.495 1.494 2.242 2.134C1572.006.747 1571.258 0 1571.258 0zm113.437 311.178l1.281 1.281-1.281-1.281z"/>
            </g>
        </g>
    </switch>
</svg>
