<svg xmlns="http://www.w3.org/2000/svg" width="64" height="52" viewBox="0 0 64 52">
    <switch>
        <g>
            <g fill="#222">
                <path d="M57.892 31.578c-9.227.473-18.551 3.289-25.883 7.809-7.332-4.52-16.658-7.336-25.887-7.809l6.156-26.527c5.951.27 11.691 2.156 16.996 6.375l2.734 2.168 2.734-2.176c5.305-4.211 10.707-6.266 16.66-6.535M53.247 0c-7.254 0-14.84 2.812-21.238 7.898C25.606 2.812 18.021 0 10.769 0c-.713 0-1.42.023-2.123.082L.009 36.109a48.563 48.563 0 0 1 3.383-.125c10.172 0 20.916 3.211 28.594 8.746 0 0 .012.016.023.016h.002c.006 0 .018-.016.018-.016 7.68-5.535 18.422-8.746 28.594-8.746 1.141 0 2.27.047 3.387.125L55.368.082A25.351 25.351 0 0 0 53.247 0z"/>
                <path d="M63.212 41.922L62.595 40h.004l-.52-1.605c-.488-.02-.969-.051-1.457-.051-10.172 0-20.918 3.207-28.596 8.742 0 0-.01.02-.018.02h-.004c-.008 0-.023-.02-.023-.02-7.676-5.535-18.422-8.742-28.592-8.742-.49 0-.971.031-1.459.051l-.508 1.582h.004l-.625 1.945c9.672.188 19.707 2.836 27.111 7.945-.043.148-.092.293-.092.461 0 .922.742 1.672 1.66 1.672h5.051c.918 0 1.66-.75 1.66-1.672 0-.168-.047-.312-.094-.461 7.408-5.117 17.443-7.758 27.115-7.945z"/>
            </g>
        </g>
    </switch>
</svg>
