<svg xmlns="http://www.w3.org/2000/svg" width="2044.006" height="1533.112" viewBox="0 0 2044.006 1533.112">
    <switch>
        <g>
            <path fill-rule="evenodd" clip-rule="evenodd" fill="#222" d="M2034.455 508.129c-13.973-21.333-53.894-32.936-58.883-57.388-2.745-12.849-6.238-26.074-11.728-37.676-79.096-169.667-202.603-279.203-367.779-329.853-375.263-114.526-680.602 29.192-815.961 102.548-34.557 18.714-70.238 15.596-105.918 6.363-5.239-1.371-12.101-8.108-12.975-13.473-13.972-76.975-60.131-125.13-117.878-162.432C493.806-15.72 458.749-.5 445.774 62.002c-7.61 36.18-7.859 74.355-10.104 111.532-1.873 31.313-6.363 59.759-38.551 70.362-7.859 2.62-15.344 7.236-22.581 11.477-72.981 45.412-142.844 94.44-172.536 188.63-28.194 89.7-22.332 93.566-113.028 123.259-31.188 10.104-82.089 33.31-84.335 70.112-5.177 85.582-31.313 230.282 132.99 233.901 2.12 0 135.608 35.93-23.455 30.19-81.963-2.745 151.204 106.291 227.054 131.492 103.298 34.432 209.34 62.626 319.233 55.64 21.209-1.496 25.576 8.484 26.948 30.192 4.616 73.355 10.604 146.212 18.338 219.318 3.992 36.928 15.47 73.106 18.09 110.035 1.622 23.703 6.237 40.67 25.2 50.65 14.722 8.233 29.443 18.713 45.037 21.458 34.807 5.489 70.362 9.98 105.418 9.231 21.832-.499 65.622 2.245 69.988-36.429 0-226.805 73.231-238.282 79.718-239.28 78.033-10.479 349.752-7.485 414.874-7.485 96.312 0 57.138 204.1 79.843 234.789 8.484 11.229 13.973 25.45 27.196 31.438 50.151 22.456 102.799 23.455 155.446 17.467 35.929 0 60.631-96.312 67.117-110.533 65.622-148.46 127.501-298.915 171.165-457.604 30.44-109.785 60.381-220.926 42.915-335.826-1.247-8.108 22.207-28.569 25.203-36.553 10.231-27.193 17.966-56.51 1.498-81.336zm-341.828-135.484c-281.199-123.508-545.681-87.33-734.497 13.224-9.98-38.424-51.961-101.551-64.624-149.083 211.024-105.169 528.402-153.948 836.547-13.847l-37.426 149.706z"/>
        </g>
    </switch>
</svg>
