<svg xmlns="http://www.w3.org/2000/svg" width="16.935" height="25.707" viewBox="0 0 16.935 25.707">
    <g fill="#222">
        <path d="M7.329 24.16H3.047c-.339 0-.614.214-.614.477l.175 1.07h5.16l.175-1.07c0-.263-.274-.477-.614-.477zm6.291 0H9.338c-.339 0-.614.214-.614.477l.175 1.07h5.159l.176-1.07c.001-.263-.275-.477-.614-.477zM13.422 18.662h-.527l.441-4.097-2.559.812c-.25-1.048-1.186-1.83-2.311-1.83s-2.062.782-2.311 1.83l-2.558-.812.44 4.097h-.525a.5.5 0 0 0-.5.5l.506 3.98h3.464l.506-3.98c0-.276-.222-.5-.499-.5h-.525v-1.424l.02.006a2.378 2.378 0 0 0 3.967 0l.02-.006v1.424h-.527a.498.498 0 0 0-.498.5l.506 3.98h3.464l.507-3.98a.501.501 0 0 0-.501-.5z"/>
        <path d="M14.204 9.876h2.197v-.039l.496-.599c0-5.517-4.612-4.907-4.612-4.907-2.089.093-1.271-.368-1.271-1.417C10.926.754 9.725 0 8.467 0 7.208 0 6.009.754 5.921 2.915c0 1.049.817 1.51-1.271 1.417 0 0-4.613-.61-4.613 4.907l.497.599v.039H2.73l.311-.375 1.54 4.456.822.299c.709-.936 1.827-1.519 3.064-1.519s2.354.583 3.063 1.519l.829-.281 1.533-4.474.312.374zm-6.73-6.823a.658.658 0 1 1 0-1.316.658.658 0 0 1 0 1.316zm1.987.063a.659.659 0 0 1 0-1.315.657.657 0 1 1 0 1.315zM2.631 13.55v-2.685H.533v2.685c-.325.191-.533.468-.533.779v.913c0 .578.708 1.049 1.583 1.049s1.583-.471 1.583-1.049v-.913c-.001-.311-.209-.588-.535-.779zm13.77 0v-2.685h-2.098v2.685c-.325.191-.534.468-.534.779v.913c0 .578.708 1.049 1.583 1.049s1.583-.471 1.583-1.049v-.913c0-.311-.208-.588-.534-.779z"/>
    </g>
</svg>
