<svg xmlns="http://www.w3.org/2000/svg" width="2043" height="1532.24" viewBox="0 0 2043 1532.24">
    <path d="M1918.929 534.993H1640.36v.374h-433.938l339.046-339.045c44.641-43.768 45.888-115.966 2.992-161.355-43.02-45.389-113.971-46.76-158.611-3.117L873.362 535.367H402.577v-.374H124.071C55.552 534.993 0 591.48 0 661.185c0 69.704 55.552 126.191 124.071 126.191h22.071l221.957 589.495c39.778 133.673 102.499 155.37 229.126 155.37h852.851c126.44 0 177.315-11.971 229.064-155.37l221.957-589.495h17.831c68.582 0 124.071-56.487 124.071-126.191.001-69.705-55.488-126.192-124.07-126.192zM702.967 1260.654c0 54.367-24.253 98.51-77.747 98.51s-77.81-44.143-77.81-98.51V806.953c0-54.367 24.315-98.509 77.81-98.509s77.747 44.142 77.747 98.509v453.701zm398.463 0c0 54.367-24.316 98.51-77.81 98.51s-77.81-44.143-77.81-98.51V806.953c0-54.367 24.315-98.509 77.81-98.509 53.494 0 77.81 44.142 77.81 98.509v453.701zm398.274 0c0 54.367-24.19 98.51-77.685 98.51s-77.81-44.143-77.81-98.51V806.953c0-54.367 24.315-98.509 77.81-98.509s77.685 44.142 77.685 98.509v453.701z"/>
</svg>
