<svg xmlns="http://www.w3.org/2000/svg" width="2048" height="2978.91" viewBox="0 0 2048 2978.91">
    <switch>
        <g>
            <path fill="#222" d="M1825.328 712.111l-265.996 13.644c-15.282-163.562-33.111-328.035-93.517-482.319-33.477-85.331-80.78-173.207-169.93-215.417C1255.131 8.916 1211.466 0 1167.072 0c-42.938 0-85.785 8.37-126.016 23.653-19.286 7.278-37.48 16.011-54.946 25.471a273.889 273.889 0 0 0-13.646-6.914c-40.572-19.285-84.601-28.2-128.722-28.2-42.847 0-85.785 8.368-126.084 23.833-164.927 62.77-265.177 217.6-328.764 368.61-49.215 116.805-77.507 239.977-104.707 363.15L0 779.246v1904.609l1787.85 296.926 212.505-359.148 49.122-1805.27-224.149-104.252zM1151.425 69.137c25.836 0 51.671 5.094 76.778 17.103 55.674 26.38 90.971 74.958 117.17 127.174 34.567 68.955 56.765 142.823 73.503 217.236 21.833 98.429 33.113 198.313 42.573 298.381l-225.969 7.823c-14.918-162.654-33.113-326.035-93.152-479.41-22.56-57.857-51.762-116.806-95.905-161.926 33.045-16.192 68.887-26.381 105.002-26.381zm-181.871 79.69c21.378 23.106 38.208 50.397 52.398 78.598 34.387 68.772 56.789 143.004 73.526 217.235 21.833 97.52 33.022 196.495 42.483 295.469L702.83 755.048c34.933-157.013 71.866-314.209 152.102-456.849 30.294-53.854 68.774-107.708 114.622-149.372zM531.626 312.208c44.212-78.78 106.07-157.378 182.667-198.133 35.297-18.921 74.413-30.929 113.622-30.929 25.834 0 51.853 5.275 76.96 17.103 1.546.727 3.001 1.637 4.457 2.365-89.969 76.414-152.464 184.122-197.131 289.647-49.578 117.897-77.96 241.979-105.251 366.244l-226.696 7.823c34.749-156.286 71.683-312.389 151.372-454.12zM131.906 900.6l84.238-2.911 168.657-5.64 226.879-7.824 103.159-3.64 400.471-13.644 124.901-4.368 198.679-6.731v2.001l126.265-6.368 40.391-1.456-.363-.727 84.783-4.186-61.132 1981.751-1496.928-248.891V900.6zm1737.452 1686.463l-98.611 167.021 58.584-1900.061 85.875 40.027-45.848 1693.013z"/>
        </g>
    </switch>
</svg>
