<svg xmlns="http://www.w3.org/2000/svg" width="1787.751" height="2043.285" viewBox="0 0 1787.751 2043.285">
    <path fill-rule="evenodd" clip-rule="evenodd" d="M1244.79 840.631c-45.646 0-82.56 35.917-82.56 80.298 0 44.398 36.914 80.315 82.56 80.315 45.645 0 82.684-35.917 82.684-80.315 0-44.381-37.039-80.298-82.684-80.298zm199.537 138.414c-45.644 0-82.684 35.917-82.684 80.299 0 44.397 37.04 80.314 82.684 80.314 45.645 0 82.684-35.917 82.684-80.314 0-44.382-37.039-80.299-82.684-80.299zm-507.231 19.331c0-29.307-16.399-54.748-40.78-68.716l83.432-98.757c15.09 19.207 38.785 31.927 65.535 31.927 45.646 0 82.809-35.917 82.809-80.189 0-31.802-19.205-59.113-46.892-71.958l80.533-95.403c14.965 14.84 35.792 24.068 58.863 24.068 45.645 0 82.684-35.9 82.684-80.174 0-29.806-16.711-55.372-41.279-69.214 38.66-63.354 31.802-112.365-43.524-172.211-.998-.998-2.37-1.621-3.367-2.618l.125-.374-27.312-22.698c-162.967-129.825-398.047-117.353-545.751 22.075L274.099 44.272S0-113.862 0 167.596v1748.359c0 70.336 61.42 127.33 137.058 127.33 75.7 0 137.042-56.994 137.042-127.33V368.615l201.284 147.533c-99.332 166.1-63.353 382.209 94.454 507.793 0 0 25.441 18.956 26.626 19.704 73.018 58.225 133.191 51.116 192.351 3.243 15.215 19.189 38.786 31.786 65.536 31.786 45.706.001 82.745-35.902 82.745-80.298zm133.877 229.702c0-44.272-36.914-80.189-82.621-80.189-45.581 0-82.621 35.917-82.621 80.189 0 44.522 37.04 80.439 82.621 80.439 45.707.001 82.621-35.916 82.621-80.439zm51.381 149.529c-45.645 0-82.685 35.917-82.685 80.313 0 44.397 37.04 80.283 82.685 80.283 45.613 0 82.652-35.886 82.652-80.283.001-44.396-37.038-80.313-82.652-80.313zm340.556-840.756c-45.645 0-82.684 35.917-82.684 80.298 0 44.398 37.039 80.314 82.684 80.314 45.644 0 82.683-35.917 82.683-80.314 0-44.382-37.039-80.298-82.683-80.298zm242.282 58.239c-45.738 0-82.652 35.902-82.652 80.174 0 44.398 36.914 80.315 82.652 80.315 45.645 0 82.559-35.917 82.559-80.315 0-44.272-36.914-80.174-82.559-80.174z"/>
</svg>
