<svg xmlns="http://www.w3.org/2000/svg" width="48" height="64" viewBox="0 0 48 64">
    <switch>
        <g>
            <path fill="#222" d="M26.691 36.406C25.986 35.012 24 31.738 24 31.738s-1.986 3.273-2.695 4.668c-.414.82-.76 1.715-.926 2.613-.221 1.203.318 2.266 1.602 2.27.668 0 1.252-.238 2.02-1 .768.762 1.352 1 2.018 1 1.283-.004 1.824-1.066 1.604-2.27-.17-.898-.514-1.792-.932-2.613zm-8.894-14.808c-1.148.137-2.527.285-3.9.465-.938.121-1.885.23-2.799.445-2.887.684-4.094 2.961-3.047 5.688.381.988.738 1.992 1.211 2.934 1.523 3.008 5.367 4.289 7.336 2.215a27.507 27.507 0 0 0 4.521-6.371c1.336-2.619-.469-5.423-3.322-5.376zm19.105.91c-.918-.215-1.863-.324-2.801-.445-1.375-.18-2.75-.328-3.898-.465-2.854-.047-4.66 2.758-3.322 5.375a27.615 27.615 0 0 0 4.518 6.371c1.973 2.074 5.816.793 7.336-2.215.477-.941.836-1.945 1.211-2.934 1.046-2.726-.157-5.004-3.044-5.687zm5.106 21.293c-3.336 1.348-4.898 3.422-5.625 5.004-.051.117-.102.234-.148.344-.906 2.117-2.336 4.074-6.678 4.074H17.848c-1.855-.074-5.211-1.129-6.316-4.598-.762-1.559-2.328-3.527-5.537-4.824.078 1.395.193 2.828-.1 4.156-.496 2.242.229 3.992 1.688 5.492 3.311 3.41 6.703 6.742 10.105 10.062.332.321.958.489 1.451.489h.01c1.617-.008 3.234-.07 4.852-.148 1.617.078 3.234.141 4.852.148h.01c.49 0 1.119-.168 1.451-.488 3.402-3.32 6.797-6.652 10.105-10.062 1.457-1.5 2.184-3.25 1.688-5.492-.298-1.329-.177-2.763-.099-4.157zM48 23.777C48 10.648 37.254 0 24 0 10.744 0 0 10.648 0 23.777c0 2.254.324 4.434.914 6.496-.732 2.773-1.785 9.586 4.801 11.637 5.211 1.621 7.635 4.781 8.684 7.066.693 2.535 3.57 2.648 3.57 2.648h11.588c3.236 0 3.416-1.273 4.041-2.641 1.047-2.285 3.469-5.449 8.688-7.074 6.586-2.051 5.535-8.863 4.801-11.637.589-2.061.913-4.241.913-6.495zm-4.047 7.305c.262.996.652 2.926.301 4.652-.336 1.656-1.215 2.59-2.941 3.129-6.734 2.094-9.57 6.414-10.668 8.805-.074.164-.145.328-.213.488-.027.07-.064.152-.096.227a5.47 5.47 0 0 1-.779.047H18.126c-.137-.023-.551-.105-.602-.285l-.066-.25-.109-.238c-1.096-2.387-3.934-6.703-10.658-8.793-1.729-.539-2.609-1.473-2.943-3.129-.352-1.727.039-3.656.301-4.652l.223-.84-.238-.836a20.474 20.474 0 0 1-.793-5.629C3.238 12.43 12.551 3.195 24 3.195c11.445 0 20.762 9.234 20.762 20.582 0 1.898-.27 3.793-.793 5.629l-.242.836.226.84z"/>
        </g>
    </switch>
</svg>
