<svg xmlns="http://www.w3.org/2000/svg" width="2047.026" height="1279.357" viewBox="0 0 2047.026 1279.357">
    <switch>
        <g>
            <g fill="#222">
                <path d="M1688.479 998.373v213.768h-83.083V998.373h83.083m22.115-67.591h-127.311c-24.488 0-44.229 20.115-44.229 44.978v258.62c0 24.987 19.74 44.978 44.229 44.978h127.311c24.363 0 44.353-19.99 44.353-44.978V975.76c-.001-24.863-19.99-44.978-44.353-44.978zM1450.35 930.782H44.29C19.865 930.782 0 950.897 0 975.76v258.62c0 24.987 19.865 44.978 44.29 44.978h1406.06c24.487 0 44.353-19.99 44.353-44.978V975.76c-.001-24.863-19.866-44.978-44.353-44.978zm-21.99 281.359H410.544V998.373H1428.36v213.768zM1839.654 0c.749.999 1.749 1.749 2.498 2.499-1.624-1.5-2.498-2.499-2.498-2.499zm-70.465 553.347c364.315-245.002 107.321-516.865 73.963-549.849 65.092 64.967 99.949 235.882-272.863 413.042-379.31 180.16-42.729 447.65-42.729 447.65-94.952-143.052 241.629-310.843 241.629-310.843zm205.397-184.533c39.479 39.355 60.719 143.428-165.916 251.374-230.885 109.57-26.112 272.363-26.112 272.363-57.596-87.081 147.051-189.155 147.051-189.155 221.637-149.05 65.216-314.591 44.977-334.582zm-2.249-1.999l1.5 1.5-1.5-1.5z"/>
            </g>
        </g>
    </switch>
</svg>
