<svg xmlns="http://www.w3.org/2000/svg" width="64" height="56" viewBox="0 0 64 56">
    <switch>
        <g>
            <path fill="#222" d="M56.541 22.403l-4.758 3.574-4.125-1.156 3.781-6.246-8.152 7.379h-7.771l3.884-6.805 10.407-3.441-7.25.187 1.07-4.187 5.445-2.383L48.002 0l-8.527 3.731.683 5.949-3.054 3.028-3.467-6.43 2.248 10.824-3.884 6.797-3.886-6.801 2.252-10.824-3.465 6.434-3.057-3.028.684-5.953L16 .004l-1.067 9.321 5.442 2.383 1.07 4.179-7.246-.179 10.402 3.441 3.887 6.805h-7.776l-8.15-7.379 3.779 6.246-4.125 1.156-4.759-3.574L0 28l7.457 5.602 4.759-3.579 4.125 1.161-3.779 6.25 8.148-7.383h7.776l-3.885 6.801-10.404 3.441 7.248-.18-1.07 4.188-5.444 2.379L16 56l8.527-3.727-.684-5.949 3.057-3.031 3.467 6.434-2.254-10.825 3.89-6.8 3.886 6.8-2.252 10.825 3.467-6.434 3.054 3.027-.679 5.953L48.002 56l1.07-9.324-5.445-2.375-1.07-4.192 7.25.184-10.403-3.441-3.886-6.801h7.773l8.148 7.383-3.781-6.25 4.125-1.161 4.758 3.579L64.002 28z"/>
        </g>
    </switch>
</svg>
