<svg xmlns="http://www.w3.org/2000/svg" width="1663.938" height="2048" viewBox="0 0 1663.938 2048">
    <path d="M832 356.375C372.438 356.375 0 735 0 1202.125 0 1669.375 372.438 2048 832 2048c459.438 0 831.938-378.625 831.938-845.875 0-467.125-372.5-845.75-831.938-845.75zm0 1494.5c-352.438 0-638.063-290.375-638.063-648.75 0-358.25 285.625-648.75 638.063-648.75s638.062 290.5 638.062 648.75c0 358.375-285.624 648.75-638.062 648.75zM885.187 1105L832 620.25 778.812 1105c-35.25 19.375-59.125 57.125-59.125 100.625 0 63.125 50.25 114.25 112.312 114.25 61.937 0 112.312-51.125 112.312-114.25.001-43.5-23.873-81.25-59.124-100.625zm635.125-660.875c26.126-44.125 12.126-101.5-31.25-128l-118-72.125c-43.374-26.625-99.875-12.375-126 31.75l-64.874 104c99.874 44.375 190 106.75 266.75 182.875l73.374-118.5zm-819.937-187.25v63.25c43.063-6.5 86.938-10 131.625-10 51.937 0 102.812 4.75 152.187 13.5v-66.75c35.25-1.5 63.25-30.875 63.25-67V67.125C1047.438 30 1017.937 0 981.562 0H703.125C666.75 0 637.25 30 637.25 67.125v122.75c0 36.125 28.062 65.5 63.125 67z"/>
</svg>
