<svg xmlns="http://www.w3.org/2000/svg" width="2017.338" height="2017.268" viewBox="0 0 2017.338 2017.268">
    <switch>
        <g>
            <path fill="#222" d="M1229.57 1661.877l47.035 46.789 432.185-432.186-46.79-46.91-432.43 432.307zm265.467-330.725L660.896 326.17 0 0l326.17 660.835 1005.105 834.079 163.762-163.762zM157.975 161.3L1361.81 1365.135l-34.969 34.846-944.34-783.595L157.975 161.3zm1482.847 1643.9l164.5-164.5c-24.625-26.474-51.715-55.162-81.758-86.438l-169.18 169.18c31.03 30.044 59.843 57.255 86.438 81.758zm-133.965-128.055l170.41-170.41c-22.655-22.901-46.543-47.035-71.907-72.522l-171.148 171.026c25.609 25.486 49.496 49.373 72.645 71.906zm477.25 320.628v.125l13.789-13.793v-.123c23.887-24.747 37.187-54.177-30.043-149.971l-133.719 133.842c95.795 67.229 125.1 53.807 149.973 29.92zm-203.41-70.306l146.77-146.894c-20.932-26.351-46.542-56.394-77.324-90.746l-160.314 160.19c34.474 30.784 64.519 56.395 90.868 77.45z"/>
        </g>
    </switch>
</svg>
