<svg xmlns="http://www.w3.org/2000/svg" width="64" height="56" viewBox="0 0 64 56">
    <switch>
        <g>
            <path fill-rule="evenodd" clip-rule="evenodd" fill="#222" d="M55.695 4.37c-5.18-1.59-8.25-2.531-13.453-4.023-2.219-.641-2.195-.531-3.641 1.535-1.836 2.922-3.68 3.086-6.599 3.086-2.811 0-4.764-.164-6.596-3.086C23.957-.184 23.982-.294 21.763.347c-5.2 1.491-8.276 2.433-13.45 4.023C7.694 4.561.706 21.151.002 23.21v.305c.48.258 9.344 5.02 13.773 6.179l1.91-4.417v30.722H48.32V25.276l1.91 4.417c4.43-1.16 13.293-5.921 13.77-6.179v-.305c-.699-2.058-7.688-18.648-8.305-18.839z"/>
        </g>
    </switch>
</svg>
