<svg xmlns="http://www.w3.org/2000/svg" width="2043.394" height="1787.902" viewBox="0 0 2043.394 1787.902">
    <path d="M932.301 893.951l209.785 131.199 1.558-74.703h506.152l69.842 87.799h323.756l-149.906-144.295 149.906-144.169h-323.756l-69.842 87.924h-506.152l-1.558-75.078z"/>
    <path d="M896.883 666.348c-125.837 0-228.291 102.016-228.291 227.604 0 125.338 102.453 227.479 228.291 227.479 58.366 0 111.494-22.074 151.839-58.116L778.03 893.951l270.692-169.487c-40.345-35.917-93.473-58.116-151.839-58.116z"/>
    <path d="M1233.875 1032.259c-54.75 131.947-185.152 224.985-336.992 224.985-200.978 0-364.541-162.878-364.541-363.293 0-200.416 163.563-363.293 364.541-363.293 151.839 0 282.242 93.163 336.992 224.986h206.404c-61.984-241.698-281.73-421.16-543.396-421.16-309.541 0-561.339 250.924-561.339 559.468 0 308.418 251.799 559.469 561.339 559.469 261.666 0 481.412-179.464 543.396-421.161h-206.404z"/>
    <path d="M1680.102 1119.934l-69.962-87.675h-27.19c-64.476 318.645-347.578 559.344-686.067 559.344-386.054 0-700.021-312.908-700.021-697.651 0-384.744 313.967-697.651 700.021-697.651 338.489 0 621.591 240.699 686.067 559.344h27.19l69.962-87.675h84.557C1664.015 284.099 1313.194 0 896.883 0 402.391 0 0 400.955 0 893.951c0 492.995 402.391 893.951 896.883 893.951 416.311 0 767.132-284.223 867.776-667.969h-84.557z"/>
</svg>
