<svg xmlns="http://www.w3.org/2000/svg" width="2048" height="1664" viewBox="0 0 2048 1664">
    <g fill-rule="evenodd" clip-rule="evenodd">
        <path d="M1691.139 952.065c-201.2 0-364.143 160.685-364.143 358.874 0 198.191 162.942 358.875 364.143 358.875 200.95 0 364.018-160.684 364.018-358.875-.001-198.189-163.068-358.874-364.018-358.874zm0 527.085c-94.328 0-170.594-75.262-170.594-168.211 0-92.823 76.266-168.21 170.594-168.21 94.078 0 170.594 75.387 170.594 168.21-.001 92.95-76.516 168.211-170.594 168.211z"/>
        <path d="M1256.375 1310.939c0-236.699 194.679-428.616 434.764-428.616 98.093 0 188.407 32.612 261.285 86.802-.126-73.507-.126-129.952-.126-132.964-.752-34.745-8.528-67.233-31.609-95.081-21.198-25.588-48.669-41.143-80.404-48.418-13.423-3.01-215.626-14.3-379.948-21.073V25.965c0-14.425-9.785-25.965-21.701-25.965h-83.416c-12.042 0-21.7 11.54-21.7 25.965v640.983c-51.053-1.38-84.419-1.38-84.419.752h-2.007a8412.97 8412.97 0 0 1-.752-17.31l-45.534-518.055c0-62.342-51.304-112.769-114.461-112.769H471.769c-63.221 0-114.462 50.426-114.462 112.769l-94.768 490.207c-5.017.878-10.098 1.63-15.178 2.383-18.564 2.76-37.381 5.519-55.442 10.411-39.388 10.662-63.723 38.258-80.093 73.631-1.567 3.262-3.387 6.774-3.762 10.161-3.325 29.227-22.203 47.29-45.221 62.718-9.847 6.523-18.941 14.3-28.223 21.952-29.729 24.334-28.348 64.725 3.7 87.052 12.355 8.53 26.655 14.3 41.332 21.952-4.077 6.898-8.781 14.677-13.422 22.578-37.253 64.477-59.77 133.342-64.6 207.6-.124 2.007-1.065 4.139-1.63 6.271v62.468c2.132 15.429 3.825 30.983 6.334 46.286 15.241 94.454 55.381 177.493 120.42 248.615 80.594 87.932 181.005 139.612 299.48 157.424 15.303 2.258 30.794 3.136 46.223 4.767h45.911c17.499-2.132 35.06-3.763 52.558-6.272 76.705-10.787 146.321-39.262 209.479-83.038 73.693-50.928 128.761-117.159 166.204-197.814 7.086-15.303 12.606-31.234 18.502-47.038 2.006-5.27 4.139-8.28 10.662-8.28 7.589.126 15.177.126 22.83.126h258.525c-.125-5.143-.753-10.412-.753-15.556zm-747.854 66.859c-114.085 0-206.658-91.317-206.658-203.834 0-112.518 92.572-203.835 206.658-203.835 114.147 0 206.719 91.317 206.719 203.835.001 112.516-92.572 203.834-206.719 203.834z"/>
    </g>
</svg>
