<svg xmlns="http://www.w3.org/2000/svg" width="64" height="64" viewBox="0 0 64 64">
    <switch>
        <g>
            <path fill="#222" d="M50.039 15.812H35.488L47.795 0 31.568 14.758 20.412 4.605l7.695 11.207H13.964C6.251 15.812 0 21.496 0 28.508v15.875c0 7.016 6.252 12.695 13.965 12.695H50.04c7.713 0 13.961-5.68 13.961-12.695V28.508C64 21.496 57.752 15.812 50.039 15.812zm7.594 28.571c0 3.809-3.404 6.906-7.594 6.906H13.964c-4.189 0-7.598-3.098-7.598-6.906V28.508c0-3.809 3.408-6.906 7.598-6.906h36.075c4.189 0 7.594 3.098 7.594 6.906v15.875zm-34.77 15.152L18.619 64h26.764l-4.246-4.465H22.863z"/>
        </g>
    </switch>
</svg>
