<svg xmlns="http://www.w3.org/2000/svg" width="1920" height="2048" viewBox="0 0 1920 2048">
    <path d="M1449.04 452.772S1382.211-9.798 956.087.158c-426.121-9.956-492.89 452.614-492.89 452.614-36.277 46.918-49.157 58.493-49.157 58.493S463.197 697.444 514.474 889.1l82.509 28.498 66.208-5.476c140.942-8.088 70.503-260.85 70.503-260.85-48.412-259.729-169.378-226.998-169.378-226.998-34.225-110.125 76.787-236.567 76.787-236.567s39.201 25.139 118.167-31.985c104.352-73.426 305.093-69.195 393.702 0 78.901 57.125 118.104 31.985 118.104 31.985s111.136 126.442 77.034 236.567c0 0-121.09-32.731-169.502 226.998 0 0-70.439 252.762 70.439 260.85 0 0 9.209 65.463-53.391 97.943-80.644 41.941-190.783 62.475-190.783 62.475s-17.049 112.194 29.868 85.81c47.044-26.569 203.603-93.277 203.603-93.277s71.186-21.03 76.911-147.475l82.637-28.498c51.148-191.656 99.528-372.483 99.528-372.483s-12.07-16.926-48.38-63.845z"/>
    <path d="M1805.189 1195.686c-62.102-116.051-158.551-190.721-298.56-211.629-40.914-6.1-76.132-.375-111.725 18.917-28.003 97.072-93.092 132.541-119.227 143.119-58.74 24.953-162.906 71-193.771 88.423-19.165 10.703-39.451 16.428-59.984 16.428-30.74 0-60.111-12.943-80.521-35.593-14.934-16.428-24.641-38.084-29.371-64.716-61.105-2.987-127.188-14-193.521-39.638-68.448-27.13-131.794-66.582-194.954-104.041-37.958-22.65-74.98-29.247-118.664-22.899-140.008 20.908-236.582 95.578-298.56 211.629C12.389 1371.908-7.648 1561.074 2.308 1754.224c5.103 99.778 55.738 178.681 145.966 232.443 67.95 40.322 144.738 52.021 223.765 52.021 191.967.498 383.995.248 575.961.248h15.555c191.905 0 383.808.25 575.932-.248 79.026 0 155.812-11.699 223.762-52.021 90.104-53.763 140.88-132.665 145.859-232.443 10.202-193.15-9.958-382.316-103.919-558.538zM824.17 632.231c13.938 51.15 47.479 206.465-23.397 300.177-22.836 30.243-54.634 51.522-91.659 61.604 61.666 32.108 131.234 52.393 205.282 57.994l8.215-54.26 64.589-11.947c.746-.249 72.804-13.939 135.403-40.076-3.982-4.229-7.716-8.586-11.2-13.315-70.813-93.712-37.212-249.152-23.396-300.3 34.348-180.206 108.022-252.637 169.999-280.748-6.097-24.144-18.791-49.531-31.859-70.564-41.691-4.355-85-22.525-129.056-54.386l-2.861-2.115c-26.012-20.41-79.152-33.479-135.405-33.479-58.243 0-112.254 13.44-144.549 36.216-43.185 31.238-86.556 49.408-128.184 53.763-13.13 21.033-25.762 46.421-31.862 70.564 62.041 28.112 135.591 100.543 169.94 280.872z"/>
</svg>
