<svg xmlns="http://www.w3.org/2000/svg" width="40" height="64" viewBox="0 0 40 64">
    <path fill="#222" d="M38.485 60.656c-1.453 1.414-4.977 1.281-6.18-.242l-7.035-8.031-3.764-9.023-2.617 4.852-1.217 11.297c-.09 2.438-2.395 4.859-5.42 4.445-3.029-.414-4.629-2.938-4.172-5.672l1.551-13.398 4.58-8.586-.346-5.095-8.494 3.671c-2.166.625-4.482-.453-5.176-2.406-.691-1.953.502-4.043 2.668-4.668l6.738-3.176 3.391-5.559c1.268-2.988 3.02-4.199 5.838-5.16-1.938-1.32-3.207-4.07-3.379-6.945-.234-3.867 1.373-6.352 5.244-6.902 3.953-.566 6.82 3.176 6.945 7.52.086 2.766-2.852 5.254-.094 7.051l3.688 1.578c7.406 2.656 8.102 12.324 8.102 12.324l.141 5.628c.164 1.707-1.352 3.467-3.242 3.623-1.891.148-3.555-1.117-3.719-2.822l-.453-4.558s-.164-5.039-1.664-4.93l-.039 12.973c.008.234 0 .445-.008.656l3.844 9.812 4.664 5.555c1.243 1.579 1.914 4.462-.375 6.188z"/>
</svg>
